# Blender 4.1.0
# www.blender.org
mtllib coconut.mtl
o Low_Poly_Coconut_Open
v 0.071508 -0.002559 -0.043631
v 0.038768 0.011639 -0.150609
v 0.047866 0.005545 0.044773
v -0.053263 -0.001819 -0.004443
v -0.044157 0.001460 -0.102233
v 0.111895 0.083174 -0.245970
v 0.184125 0.051523 -0.109231
v 0.274271 0.110262 -0.068972
v 0.225768 0.068662 0.050315
v 0.225464 0.112710 0.160440
v 0.083398 0.149657 0.320814
v 0.052460 0.068046 0.216929
v -0.168164 0.093264 0.234888
v -0.086139 0.031099 0.131556
v -0.309361 0.106274 0.024544
v -0.177072 0.026877 -0.001779
v -0.159691 0.050083 -0.173750
v -0.277430 0.092899 -0.117029
v -0.059349 0.066809 -0.252059
v 0.142768 0.207639 -0.377834
v 0.251194 0.183801 -0.285782
v 0.391453 0.249645 -0.149638
v 0.423189 0.260939 0.004936
v 0.313469 0.222894 0.224504
v 0.225137 0.282926 0.361782
v -0.293425 0.240659 0.297719
v -0.366094 0.179157 0.126737
v -0.444202 0.329586 0.124518
v -0.395080 0.204800 -0.067718
v -0.355932 0.241669 -0.239819
v -0.225210 0.199330 -0.342038
v 0.000760 0.227464 -0.422849
v 0.116377 0.349861 0.430133
v -0.030822 0.362717 0.447593
v -0.134171 0.239396 0.391557
v -0.456855 0.366551 -0.077464
v -0.438293 0.456476 0.174985
v -0.453671 0.457258 -0.017575
v -0.055372 0.468202 -0.474737
v 0.149279 0.474499 -0.456354
v 0.435189 0.483859 -0.165203
v 0.323842 0.479646 -0.341829
v 0.390542 0.481154 0.219245
v 0.274933 0.478793 0.370040
v -0.387286 0.457395 -0.300040
v -0.436125 0.456943 -0.185587
v -0.206378 0.462536 -0.426031
v 0.460179 0.485759 0.010245
v -0.312106 0.459688 0.345764
v 0.062400 0.472647 0.445890
v -0.127408 0.466447 0.440300
v 0.142536 0.473889 -0.438531
v 0.374470 0.480386 0.210952
v -0.199375 0.462453 -0.409380
v -0.054204 0.467816 -0.456203
v 0.310350 0.478877 -0.328433
v 0.417395 0.482862 -0.158635
v 0.263334 0.477989 0.355917
v -0.123454 0.466076 0.423462
v -0.301015 0.459665 0.332580
v -0.420236 0.456910 -0.178231
v -0.373288 0.457451 -0.288260
v 0.441422 0.484580 0.010031
v 0.059018 0.472021 0.428836
v -0.437100 0.457128 -0.016714
v -0.422322 0.456499 0.168403
v 0.053667 0.061072 -0.034308
v 0.027214 0.073396 -0.120651
v 0.034570 0.068115 0.037045
v -0.047046 0.061936 -0.002678
v -0.147033 0.086948 -0.000528
v -0.039702 0.064752 -0.081606
v 0.086112 0.135059 -0.197619
v -0.052082 0.121231 -0.202533
v 0.198369 0.221733 -0.229752
v 0.144471 0.107587 -0.087254
v 0.217128 0.158165 -0.054761
v 0.178053 0.122317 0.041518
v 0.038165 0.122098 0.175995
v 0.177729 0.160368 0.130401
v -0.139963 0.144280 0.190490
v -0.073642 0.090431 0.107089
v -0.253957 0.155773 0.020718
v -0.228158 0.144161 -0.093548
v -0.133045 0.106963 -0.139328
v 0.110807 0.242520 -0.304048
v 0.115582 0.473032 -0.367423
v 0.311464 0.278358 -0.119867
v 0.337060 0.288057 0.004892
v 0.248565 0.255391 0.182109
v 0.310311 0.478346 0.177864
v 0.177157 0.307407 0.292908
v 0.062990 0.192540 0.259843
v 0.089249 0.365425 0.348076
v -0.029590 0.376796 0.362168
v -0.112788 0.270453 0.316940
v -0.299882 0.218835 0.103200
v -0.241336 0.271831 0.241202
v -0.363200 0.348922 0.101408
v -0.291792 0.272816 -0.192654
v -0.323324 0.241038 -0.053748
v -0.186200 0.236006 -0.275156
v -0.171474 0.463340 -0.342949
v -0.003854 0.259902 -0.340380
v -0.049596 0.467962 -0.382260
v 0.256475 0.477164 -0.274988
v 0.346344 0.480603 -0.132430
v 0.216999 0.476516 0.299573
v -0.107739 0.466576 0.356282
v -0.256810 0.461071 0.279980
v -0.373480 0.380876 -0.061614
v -0.356910 0.458923 -0.148883
v -0.317489 0.459225 -0.241260
v 0.366512 0.482198 0.009177
v 0.045459 0.471590 0.360793
v -0.371073 0.459227 -0.013277
v -0.358659 0.458523 0.142142
vn 0.0250 -0.9950 0.0964
vn 0.0248 -0.9949 0.0978
vn -0.0155 -0.9992 -0.0356
vn -0.0143 -0.9994 -0.0329
vn -0.0169 -0.9992 -0.0351
vn -0.2266 -0.9725 -0.0537
vn -0.2261 -0.9726 -0.0538
vn 0.0391 -0.9890 -0.1425
vn 0.0366 -0.9895 -0.1401
vn 0.0378 -0.9890 -0.1432
vn 0.6124 -0.7265 -0.3119
vn 0.6125 -0.7265 -0.3116
vn 0.6125 -0.7267 -0.3112
vn 0.3661 -0.7815 0.5053
vn 0.3668 -0.7823 0.5035
vn 0.3670 -0.7814 0.5047
vn -0.0611 -0.8754 0.4795
vn -0.0612 -0.8760 0.4784
vn -0.0604 -0.8761 0.4783
vn -0.3473 -0.8994 0.2654
vn -0.5194 -0.8537 -0.0368
vn -0.5194 -0.8537 -0.0363
vn -0.5196 -0.8536 -0.0365
vn 0.2546 -0.2787 -0.9260
vn 0.2554 -0.2787 -0.9258
vn 0.2546 -0.2792 -0.9259
vn 0.2218 -0.4956 0.8398
vn 0.2234 -0.4959 0.8392
vn 0.2230 -0.4948 0.8399
vn 0.0614 -0.4866 0.8715
vn 0.0608 -0.4856 0.8721
vn 0.0610 -0.4861 0.8718
vn 0.0890 -0.4723 0.8769
vn 0.0895 -0.4737 0.8761
vn 0.0904 -0.4733 0.8763
vn -0.5566 -0.6778 0.4804
vn -0.7831 -0.3996 0.4766
vn -0.7205 -0.6262 -0.2980
vn -0.7203 -0.6263 -0.2983
vn -0.7204 -0.6266 -0.2973
vn -0.2938 -0.2719 -0.9164
vn -0.2940 -0.2714 -0.9165
vn -0.2939 -0.2711 -0.9166
vn 0.5825 -0.2871 -0.7604
vn 0.7336 -0.2953 -0.6120
vn 0.7332 -0.2964 -0.6120
vn 0.7327 -0.2959 -0.6129
vn 0.8325 -0.1897 -0.5206
vn 0.8327 -0.1903 -0.5201
vn 0.8325 -0.1904 -0.5203
vn 0.9779 -0.1576 -0.1376
vn 0.9373 -0.1615 0.3088
vn 0.7754 -0.2224 0.5910
vn 0.7755 -0.2221 0.5910
vn -0.2790 -0.1936 0.9406
vn -0.2792 -0.1938 0.9405
vn -0.4435 -0.1755 0.8789
vn -0.4432 -0.1756 0.8791
vn -0.4958 -0.2262 0.8384
vn -0.9340 -0.3571 -0.0068
vn -0.2865 -0.2654 -0.9206
vn -0.2871 -0.2656 -0.9204
vn -0.2869 -0.2653 -0.9205
vn -0.9893 0.1031 -0.1035
vn -0.9894 0.1030 -0.1027
vn -0.9892 0.1033 -0.1037
vn 0.3496 -0.7208 -0.5985
vn 0.7319 -0.6738 -0.1010
vn 0.7318 -0.6740 -0.1013
vn 0.7014 -0.7118 0.0371
vn 0.7016 -0.7116 0.0371
vn 0.4582 -0.6677 0.5868
vn 0.4582 -0.6683 0.5860
vn -0.0281 -0.7279 0.6851
vn -0.0272 -0.7283 0.6847
vn -0.0272 -0.7275 0.6855
vn -0.3998 -0.6254 0.6701
vn -0.3994 -0.6257 0.6701
vn -0.4916 -0.7376 -0.4629
vn -0.4910 -0.7378 -0.4632
vn -0.4913 -0.7377 -0.4630
vn 0.3088 -0.8970 0.3164
vn 0.3083 -0.8968 0.3174
vn 0.0410 -0.9395 0.3400
vn -0.2185 -0.9592 0.1794
vn -0.2982 -0.9414 -0.1579
vn -0.2988 -0.9413 -0.1572
vn 0.0995 -0.8310 -0.5473
vn 0.0989 -0.8309 -0.5475
vn 0.4495 -0.7884 -0.4199
vn 0.4498 -0.7885 -0.4196
vn 0.3438 -0.8585 -0.3804
vn 0.5632 -0.8243 -0.0585
vn 0.5632 -0.8242 -0.0588
vn 0.3397 -0.8730 0.3501
vn 0.3400 -0.8729 0.3500
vn -0.4597 -0.8503 0.2561
vn -0.4598 -0.8505 0.2553
vn -0.4585 -0.8511 0.2558
vn -0.4054 -0.8996 -0.1624
vn 0.8819 -0.2551 0.3965
vn 0.8823 -0.2548 0.3957
vn 0.7742 -0.2189 0.5939
vn -0.8857 -0.4588 0.0715
vn 0.0935 -0.1883 -0.9776
vn 0.0936 -0.1889 -0.9775
vn 0.5362 -0.2503 -0.8061
vn 0.9640 -0.1922 -0.1839
vn 0.4566 -0.1530 0.8764
vn 0.4563 -0.1527 0.8766
vn 0.4562 -0.1538 0.8765
vn -0.8969 -0.2841 -0.3390
vn -0.8969 -0.2844 -0.3388
vn -0.8975 -0.2835 -0.3379
vn -0.8968 -0.2836 -0.3395
vn -0.8900 -0.2514 -0.3804
vn -0.8898 -0.2510 -0.3812
vn -0.8895 -0.2515 -0.3815
vn -0.6460 -0.2909 -0.7057
vn -0.6457 -0.2907 -0.7061
vn -0.5537 -0.2169 -0.8039
vn 0.3350 0.0265 0.9418
vn 0.3358 0.0261 0.9416
vn 0.3353 0.0266 0.9417
vn 0.1107 -0.0785 0.9908
vn -0.0308 0.0416 0.9987
vn -0.9967 0.0155 0.0796
vn -0.9968 0.0145 0.0790
vn -0.9967 0.0147 0.0797
vn -0.9981 -0.0056 0.0615
vn -0.7875 -0.1958 0.5844
vn -0.7865 -0.1959 0.5857
vn -0.7870 -0.1953 0.5852
vn -0.7873 -0.1952 0.5849
vn 0.1002 -0.7390 -0.6662
vn 0.1005 -0.7391 -0.6661
vn 0.6329 -0.7101 -0.3086
vn 0.6330 -0.7103 -0.3079
vn 0.6321 -0.7109 -0.3083
vn 0.7050 -0.6689 0.2357
vn 0.7060 -0.6675 0.2366
vn 0.7047 -0.6688 0.2368
vn 0.6650 -0.6925 0.2798
vn 0.6643 -0.6935 0.2788
vn 0.6649 -0.6930 0.2787
vn 0.4552 -0.6904 0.5623
vn 0.4549 -0.6906 0.5622
vn -0.1096 -0.7655 0.6340
vn -0.1099 -0.7651 0.6344
vn -0.5103 -0.8082 0.2939
vn -0.5114 -0.8082 0.2921
vn -0.5100 -0.8087 0.2932
vn -0.7677 -0.6401 0.0303
vn -0.7682 -0.6395 0.0304
vn -0.7679 -0.6399 0.0301
vn -0.7064 -0.7017 -0.0930
vn -0.5760 -0.6794 -0.4545
vn -0.5758 -0.6790 -0.4554
vn -0.5753 -0.6798 -0.4548
vn -0.3095 -0.7680 -0.5606
vn -0.1668 -0.6882 -0.7061
vn -0.1672 -0.6884 -0.7058
vn -0.1669 -0.6878 -0.7065
vn 0.3168 -0.9226 -0.2202
vn 0.3165 -0.9232 -0.2182
vn 0.3149 -0.9235 -0.2193
vn 0.4275 -0.9039 -0.0136
vn 0.4260 -0.9046 -0.0138
vn 0.4260 -0.9046 -0.0146
vn 0.3246 -0.9298 0.1736
vn 0.3242 -0.9302 0.1719
vn 0.3246 -0.9301 0.1721
vn -0.0391 -0.9731 0.2271
vn -0.0396 -0.9733 0.2261
vn -0.0385 -0.9735 0.2255
vn -0.1468 -0.9120 -0.3829
vn -0.1136 -0.9150 -0.3871
vn -0.1145 -0.9145 -0.3880
vn -0.1137 -0.9148 -0.3875
vn -0.0275 0.9996 -0.0053
vn -0.0273 0.9996 -0.0050
vn -0.0274 0.9996 -0.0055
vn -0.0328 0.9994 -0.0060
vn -0.0305 0.9995 -0.0049
vn -0.0308 0.9995 -0.0042
vn -0.0299 0.9995 -0.0045
vn -0.0302 0.9995 0.0010
vn -0.0366 0.9993 0.0015
vn -0.0367 0.9993 0.0008
vn -0.0372 0.9993 0.0010
vn -0.0372 0.9993 0.0014
vn -0.0296 0.9996 -0.0016
vn -0.0326 0.9995 -0.0000
vn -0.0334 0.9994 -0.0023
vn -0.0332 0.9994 -0.0028
vn -0.0337 0.9994 -0.0029
vn -0.0302 0.9995 0.0059
vn -0.0311 0.9995 0.0059
vn -0.0307 0.9995 0.0064
vn -0.0355 0.9994 -0.0019
vn -0.0354 0.9994 -0.0016
vn -0.0352 0.9994 -0.0020
vn -0.0293 0.9996 0.0024
vn -0.0301 0.9995 0.0025
vn -0.0293 0.9996 0.0038
vn -0.0287 0.9996 0.0028
vn -0.0343 0.9994 0.0103
vn -0.0297 0.9996 -0.0013
vn -0.0296 0.9996 -0.0009
vn -0.0289 0.9996 -0.0007
vn -0.0289 0.9996 -0.0017
vn -0.0262 0.9996 -0.0071
vn -0.0268 0.9996 -0.0083
vn -0.0274 0.9996 -0.0072
vn -0.0269 0.9996 -0.0071
vn -0.0308 0.9995 0.0002
vn -0.0430 0.9989 -0.0169
vn -0.0428 0.9989 -0.0167
vn -0.0429 0.9989 -0.0172
vn -0.0328 0.9992 0.0223
vn -0.0019 1.0000 0.0035
vn -0.0026 1.0000 0.0023
vn -0.0031 1.0000 0.0034
vn -0.0027 1.0000 0.0035
vn -0.0390 0.9989 -0.0274
vn -0.0389 0.9989 -0.0269
vn -0.0383 0.9989 -0.0268
vn -0.0383 0.9989 -0.0277
vn -0.0564 0.9984 0.0026
vn -0.0087 0.9999 -0.0129
vn -0.0095 0.9999 -0.0128
vn -0.0087 0.9999 -0.0115
vn -0.0081 0.9999 -0.0126
vn -0.0236 0.9994 -0.0249
vn -0.0234 0.9994 -0.0246
vn -0.0233 0.9994 -0.0250
vn 0.0044 1.0000 0.0029
vn 0.0034 1.0000 0.0029
vn 0.0039 1.0000 0.0034
vn -0.0508 0.9987 0.0088
vn -0.0507 0.9987 0.0083
vn -0.0512 0.9987 0.0082
vn -0.0317 0.9990 -0.0299
vn -0.0184 0.9997 0.0146
vn -0.0302 0.9993 0.0207
vn -0.0303 0.9993 0.0201
vn -0.0308 0.9993 0.0202
vn -0.0309 0.9993 0.0207
vn -0.0411 0.9990 0.0175
vn 0.0053 1.0000 -0.0011
vn 0.0050 1.0000 -0.0004
vn 0.0060 1.0000 -0.0006
vn -0.0598 0.9982 -0.0020
vn -0.0256 0.9941 -0.1054
vn -0.0243 0.9942 -0.1046
vn 0.0206 0.9991 0.0361
vn 0.0204 0.9991 0.0375
vn 0.0208 0.9989 0.0409
vn 0.2434 0.9682 0.0572
vn 0.2438 0.9681 0.0570
vn -0.0374 0.9876 0.1523
vn -0.0387 0.9875 0.1525
vn -0.0393 0.9870 0.1557
vn -0.6340 0.7027 0.3230
vn -0.6338 0.7025 0.3236
vn -0.6338 0.7028 0.3232
vn -0.3811 0.7603 -0.5260
vn -0.3803 0.7608 -0.5259
vn -0.3799 0.7599 -0.5275
vn 0.0667 0.8620 -0.5025
vn 0.0668 0.8611 -0.5040
vn 0.0663 0.8615 -0.5035
vn 0.3681 0.8867 -0.2798
vn 0.5465 0.8366 0.0381
vn 0.5462 0.8368 0.0383
vn 0.5462 0.8368 0.0386
vn -0.2554 0.2612 0.9309
vn -0.2556 0.2607 0.9310
vn -0.2549 0.2618 0.9308
vn -0.2267 0.4699 -0.8531
vn -0.2252 0.4702 -0.8534
vn -0.2253 0.4690 -0.8540
vn -0.0601 0.4609 -0.8854
vn -0.0609 0.4611 -0.8853
vn -0.0608 0.4616 -0.8850
vn -0.0912 0.4492 -0.8888
vn -0.0894 0.4488 -0.8891
vn -0.0899 0.4482 -0.8894
vn 0.5741 0.6528 -0.4942
vn 0.7910 0.3784 -0.4809
vn 0.7390 0.6006 0.3052
vn 0.7390 0.6002 0.3059
vn 0.7392 0.6005 0.3049
vn 0.2959 0.2549 0.9206
vn 0.2961 0.2554 0.9204
vn 0.2958 0.2553 0.9205
vn -0.5853 0.2686 0.7650
vn -0.7368 0.2775 0.6165
vn -0.7377 0.2772 0.6155
vn -0.7374 0.2764 0.6164
vn -0.8345 0.1768 0.5218
vn -0.8348 0.1763 0.5216
vn -0.8344 0.1763 0.5222
vn -0.9797 0.1456 0.1379
vn -0.9391 0.1493 -0.3095
vn -0.7778 0.2066 -0.5936
vn -0.7780 0.2067 -0.5933
vn 0.2799 0.1819 -0.9426
vn 0.2797 0.1821 -0.9427
vn 0.4445 0.1652 -0.8804
vn 0.4448 0.1650 -0.8803
vn 0.4977 0.2130 -0.8408
vn 0.9411 0.3379 0.0069
vn 0.2891 0.2493 0.9243
vn 0.2887 0.2495 0.9243
vn 0.2884 0.2493 0.9245
vn 0.9901 -0.0943 0.1036
vn 0.9901 -0.0940 0.1037
vn 0.9900 -0.0948 0.1042
vn -0.3606 0.6969 0.6200
vn -0.7541 0.6484 0.1043
vn -0.7543 0.6482 0.1041
vn -0.7255 0.6871 -0.0385
vn -0.7253 0.6873 -0.0384
vn -0.4709 0.6421 -0.6049
vn -0.4712 0.6414 -0.6055
vn 0.0295 0.7047 -0.7089
vn 0.0308 0.7043 -0.7092
vn 0.0300 0.7040 -0.7096
vn 0.4110 0.5996 -0.6867
vn 0.4114 0.5995 -0.6865
vn 0.5099 0.7146 0.4789
vn 0.5100 0.7144 0.4791
vn 0.5101 0.7145 0.4788
vn -0.3234 0.8845 -0.3363
vn -0.3238 0.8847 -0.3353
vn -0.0415 0.9317 -0.3609
vn 0.2344 0.9533 -0.1907
vn 0.3191 0.9331 0.1658
vn 0.3189 0.9330 0.1667
vn -0.1012 0.8128 0.5737
vn -0.1017 0.8129 0.5734
vn -0.4674 0.7678 0.4383
vn -0.4670 0.7681 0.4382
vn -0.3597 0.8429 0.4000
vn -0.5886 0.8061 0.0613
vn -0.5885 0.8062 0.0610
vn -0.3559 0.8586 -0.3689
vn -0.3557 0.8586 -0.3691
vn 0.4831 0.8336 -0.2678
vn 0.4840 0.8333 -0.2672
vn 0.4831 0.8334 -0.2686
vn 0.4292 0.8868 0.1711
vn -0.8858 0.2377 -0.3985
vn -0.8855 0.2386 -0.3987
vn -0.7766 0.2037 -0.5961
vn 0.8972 0.4357 -0.0724
vn -0.0932 0.1772 0.9798
vn -0.0934 0.1767 0.9798
vn -0.5381 0.2338 0.8098
vn -0.9666 0.1782 0.1845
vn -0.4571 0.1423 -0.8780
vn -0.4575 0.1416 -0.8778
vn -0.4570 0.1428 -0.8779
vn 0.9011 0.2684 0.3404
vn 0.9011 0.2691 0.3400
vn 0.9006 0.2695 0.3409
vn 0.9011 0.2682 0.3407
vn 0.8931 0.2373 0.3822
vn 0.8931 0.2367 0.3825
vn 0.8933 0.2377 0.3814
vn 0.6496 0.2744 0.7090
vn 0.6499 0.2748 0.7086
vn 0.5555 0.2044 0.8060
vn -0.3356 -0.0257 -0.9416
vn -0.3354 -0.0255 -0.9417
vn -0.3348 -0.0258 -0.9419
vn -0.1105 0.0731 -0.9912
vn 0.0307 -0.0388 -0.9988
vn 0.9967 -0.0110 -0.0800
vn 0.9968 -0.0117 -0.0797
vn 0.9967 -0.0122 -0.0801
vn 0.9981 0.0073 -0.0615
vn 0.7889 0.1842 -0.5863
vn 0.7887 0.1852 -0.5863
vn 0.7892 0.1847 -0.5857
vn 0.7890 0.1839 -0.5862
vn -0.1028 0.7160 0.6904
vn -0.1026 0.7159 0.6907
vn -0.6537 0.6863 0.3189
vn -0.6544 0.6855 0.3191
vn -0.6536 0.6860 0.3197
vn -0.7258 0.6428 -0.2452
vn -0.7266 0.6425 -0.2435
vn -0.7257 0.6435 -0.2435
vn -0.6857 0.6687 -0.2876
vn -0.6854 0.6685 -0.2888
vn -0.6859 0.6678 -0.2889
vn -0.4687 0.6655 -0.5809
vn -0.4690 0.6653 -0.5809
vn 0.1155 0.7434 -0.6588
vn 0.1156 0.7439 -0.6583
vn 0.5338 0.7889 -0.3044
vn 0.5347 0.7878 -0.3059
vn 0.5334 0.7887 -0.3058
vn 0.7884 0.6144 -0.0305
vn 0.7884 0.6144 -0.0308
vn 0.7880 0.6149 -0.0311
vn 0.7295 0.6772 0.0959
vn 0.5936 0.6543 0.4685
vn 0.5944 0.6539 0.4680
vn 0.5938 0.6547 0.4677
vn 0.3231 0.7460 0.5823
vn 0.1735 0.6633 0.7280
vn 0.1732 0.6637 0.7276
vn 0.1732 0.6631 0.7283
vn -0.3328 0.9143 0.2308
vn -0.3334 0.9136 0.2327
vn -0.3317 0.9141 0.2332
vn -0.4477 0.8941 0.0145
vn -0.4494 0.8932 0.0145
vn -0.4491 0.8934 0.0152
vn -0.3415 0.9222 -0.1816
vn -0.3425 0.9216 -0.1826
vn -0.3429 0.9214 -0.1827
vn 0.0447 0.9697 -0.2404
vn 0.0443 0.9693 -0.2419
vn 0.0434 0.9696 -0.2410
vn 0.1571 0.9009 0.4047
vn 0.1225 0.9038 0.4101
vn 0.1223 0.9040 0.4097
vn 0.1214 0.9040 0.4100
vt 0.337769 0.908164
vt 0.337174 0.907927
vt 0.337476 0.908598
vt 0.336793 0.908336
vt 0.336692 0.907363
vt 0.336906 0.908879
vt 0.338285 0.909793
vt 0.337653 0.909405
vt 0.337170 0.910858
vt 0.339190 0.908514
vt 0.339473 0.907082
vt 0.338627 0.907468
vt 0.337635 0.907239
vt 0.337787 0.906332
vt 0.336184 0.906509
vt 0.335647 0.907287
vt 0.336049 0.910876
vt 0.334953 0.910379
vt 0.334615 0.913386
vt 0.340953 0.907548
vt 0.341287 0.906240
vt 0.340614 0.904963
vt 0.339042 0.905286
vt 0.337620 0.904832
vt 0.336356 0.905568
vt 0.335603 0.904258
vt 0.335060 0.906199
vt 0.334083 0.907215
vt 0.331551 0.909967
vt 0.334360 0.908596
vt 0.337189 0.914043
vt 0.338645 0.911197
vt 0.339746 0.913527
vt 0.341504 0.912302
vt 0.339757 0.910591
vt 0.342973 0.910023
vt 0.343162 0.907709
vt 0.340607 0.903248
vt 0.338216 0.902398
vt 0.333771 0.905100
vt 0.332493 0.911714
vt 0.333375 0.903793
vt 0.332122 0.905673
vt 0.336730 0.909719
vt 0.338575 0.908962
vt 0.340285 0.908782
vt 0.335964 0.908115
vt 0.335987 0.908920
vt 0.331561 0.907095
vt 0.342375 0.904931
vt 0.335670 0.902676
vt 0.402225 0.891556
vt 0.401915 0.892357
vt 0.403493 0.893460
vt 0.404152 0.892796
vt 0.397588 0.891544
vt 0.397973 0.892400
vt 0.399728 0.891989
vt 0.399648 0.891071
vt 0.400317 0.902180
vt 0.400292 0.901373
vt 0.398536 0.901215
vt 0.398238 0.902069
vt 0.394374 0.895316
vt 0.395305 0.895568
vt 0.396243 0.893670
vt 0.395529 0.893057
vt 0.395017 0.899554
vt 0.395784 0.899168
vt 0.395276 0.897696
vt 0.394374 0.897816
vt 0.396748 0.901641
vt 0.397264 0.900864
vt 0.405419 0.895299
vt 0.404586 0.895558
vt 0.404729 0.897532
vt 0.405590 0.897650
vt 0.402650 0.901689
vt 0.402233 0.900897
vt 0.403991 0.899530
vt 0.404670 0.900017
vt 0.343195 0.910093
vt 0.343410 0.907665
vt 0.332287 0.911870
vt 0.334482 0.913634
vt 0.331935 0.905526
vt 0.331313 0.907039
vt 0.342582 0.904797
vt 0.341693 0.912458
vt 0.338240 0.902184
vt 0.335596 0.902450
vt 0.340729 0.903046
vt 0.333231 0.903611
vt 0.337179 0.914306
vt 0.339844 0.913765
vt 0.331313 0.910009
vt 0.400148 0.896592
vt 0.399831 0.896546
vt 0.400005 0.896955
vt 0.399665 0.896956
vt 0.400056 0.897417
vt 0.399469 0.896681
vt 0.399601 0.895613
vt 0.398547 0.895647
vt 0.399530 0.896114
vt 0.400636 0.895745
vt 0.400857 0.896487
vt 0.401481 0.896239
vt 0.400515 0.897042
vt 0.401031 0.897384
vt 0.400239 0.898079
vt 0.399632 0.897969
vt 0.398012 0.896192
vt 0.397736 0.896942
vt 0.402102 0.895186
vt 0.403066 0.895601
vt 0.403464 0.896595
vt 0.402284 0.897277
vt 0.401840 0.898258
vt 0.400800 0.898494
vt 0.401180 0.899761
vt 0.398871 0.898907
vt 0.399867 0.898868
vt 0.398373 0.898063
vt 0.399019 0.894674
vt 0.399849 0.894367
vt 0.399769 0.900326
vt 0.398975 0.896398
vt 0.400132 0.895865
vt 0.401062 0.894989
vt 0.399402 0.897435
vt 0.399035 0.897084
s 0
usemtl Low_Poly_Fruits.004
f 3/1/1 4/2/2 1/3/2
f 4/2/3 5/4/4 1/3/5
f 5/4/6 4/2/6 16/5/7
f 5/4/8 2/6/9 1/3/10
f 8/7/11 7/8/12 21/9/13
f 10/10/14 11/11/15 12/12/16
f 14/13/17 12/12/18 13/14/19
f 14/13/20 13/14/20 16/5/20
f 15/15/21 18/16/22 16/5/23
f 20/17/24 32/18/25 40/19/26
f 25/20/27 33/21/28 11/11/29
f 34/22/30 11/11/31 33/21/32
f 11/11/33 34/22/34 35/23/35
f 26/24/36 27/25/36 13/14/36
f 28/26/37 27/25/37 26/24/37
f 18/16/38 29/27/39 30/28/40
f 47/29/41 32/18/42 31/30/43
f 42/31/44 21/9/44 20/17/44
f 21/9/45 42/31/46 22/32/47
f 22/32/48 42/31/49 41/33/50
f 48/34/51 23/35/51 41/33/51
f 43/36/52 23/35/52 48/34/52
f 44/37/53 25/20/54 43/36/54
f 35/23/55 34/22/56 51/38/55
f 51/38/57 49/39/58 35/23/57
f 26/24/59 35/23/59 49/39/59
f 29/27/60 28/26/60 36/40/60
f 47/29/61 39/41/62 32/18/63
f 38/42/64 46/43/65 36/40/66
f 20/17/67 21/9/67 6/44/67
f 8/7/68 22/32/68 23/35/69
f 23/35/70 9/45/71 8/7/71
f 24/46/72 25/20/73 11/11/72
f 12/12/74 35/23/75 13/14/76
f 35/23/77 26/24/78 13/14/77
f 17/47/79 18/16/80 31/30/81
f 12/12/82 3/1/83 9/45/83
f 12/12/84 14/13/84 3/1/84
f 16/5/85 4/2/85 14/13/85
f 16/5/86 17/47/87 5/4/87
f 19/48/88 6/44/89 2/6/89
f 7/8/90 6/44/91 21/9/90
f 6/44/92 7/8/92 2/6/92
f 7/8/93 8/7/93 9/45/94
f 10/10/95 12/12/96 9/45/95
f 16/5/97 13/14/98 15/15/99
f 16/5/100 18/16/100 17/47/100
f 43/36/101 24/46/102 23/35/101
f 24/46/103 43/36/103 25/20/103
f 29/27/104 27/25/104 28/26/104
f 32/18/105 39/41/106 40/19/106
f 40/19/107 42/31/107 20/17/107
f 22/32/108 41/33/108 23/35/108
f 33/21/109 25/20/110 44/37/111
f 36/40/112 45/49/113 30/28/114 29/27/115
f 45/49/116 36/40/117 46/43/118
f 45/49/119 31/30/119 30/28/120
f 31/30/121 45/49/121 47/29/121
f 44/37/122 50/50/123 33/21/124
f 34/22/125 33/21/125 50/50/125
f 50/50/126 51/38/126 34/22/126
f 28/26/127 37/51/128 38/42/129
f 38/42/130 36/40/130 28/26/130
f 49/39/131 37/51/132 28/26/133 26/24/134
f 6/44/135 19/48/136 32/18/136 20/17/136
f 8/7/137 21/9/138 22/32/139
f 24/46/140 9/45/141 23/35/142
f 9/45/143 24/46/144 10/10/145
f 10/10/146 24/46/147 11/11/146
f 11/11/148 35/23/148 12/12/149
f 15/15/150 13/14/151 27/25/152
f 29/27/153 15/15/154 27/25/155
f 18/16/156 15/15/156 29/27/156
f 31/30/157 18/16/158 30/28/159
f 19/48/160 17/47/160 31/30/160
f 31/30/161 32/18/162 19/48/163
f 1/3/164 2/6/165 7/8/166
f 1/3/167 7/8/168 9/45/169
f 1/3/170 9/45/171 3/1/172
f 4/2/173 3/1/174 14/13/175
f 5/4/176 17/47/176 19/48/176
f 19/48/177 2/6/178 5/4/179
f 53/52/180 91/53/180 108/54/181 58/55/182
f 57/56/183 107/57/183 114/58/183 63/59/183
f 65/60/184 116/61/184 112/62/185 61/63/186
f 52/64/187 87/65/187 106/66/187 56/67/187
f 54/68/188 103/69/189 105/70/190 55/71/191
f 62/72/192 113/73/192 103/69/192 54/68/192
f 64/74/193 115/75/193 109/76/193 59/77/193
f 56/67/194 106/66/195 107/57/195 57/56/196
f 66/78/197 117/79/198 116/61/199 65/60/199
f 59/77/200 109/76/200 110/80/201 60/81/202
f 60/81/203 110/80/204 117/79/205 66/78/206
f 63/59/207 114/58/207 91/53/207 53/52/207
f 58/55/208 108/54/209 115/75/210 64/74/211
f 61/63/212 112/62/213 113/73/214 62/72/215
f 55/71/216 105/70/216 87/65/216 52/64/216
f 43/36/217 53/82/217 58/83/218 44/37/219
f 39/41/220 55/84/220 52/85/220 40/19/220
f 46/43/221 61/86/222 62/87/223 45/49/224
f 44/37/225 58/83/226 64/88/227 50/50/228
f 48/34/229 63/89/229 53/82/229 43/36/229
f 49/39/230 60/90/231 66/91/232 37/51/233
f 51/38/234 59/92/234 60/90/235 49/39/236
f 37/51/237 66/91/238 65/93/239 38/42/239
f 42/31/240 56/94/241 57/95/241 41/33/242
f 50/50/243 64/88/243 59/92/243 51/38/243
f 45/49/244 62/87/244 54/96/244 47/29/244
f 47/29/245 54/96/246 55/84/247 39/41/248
f 40/19/249 52/85/249 56/94/249 42/31/249
f 38/42/250 65/93/250 61/86/251 46/43/252
f 41/33/253 57/95/253 63/89/253 48/34/253
f 69/97/254 67/98/255 70/99/255
f 70/99/256 67/98/257 72/100/258
f 72/100/259 71/101/260 70/99/259
f 72/100/261 67/98/262 68/102/263
f 77/103/264 75/104/265 76/105/266
f 80/106/267 79/107/268 93/108/269
f 82/109/270 81/110/271 79/107/272
f 82/109/273 71/101/273 81/110/273
f 83/111/274 71/101/275 84/112/276
f 86/113/277 87/65/278 104/114/279
f 92/115/280 93/108/281 94/116/282
f 95/117/283 94/116/284 93/108/285
f 93/108/286 96/118/287 95/117/288
f 98/119/289 81/110/289 97/120/289
f 99/121/290 98/119/290 97/120/290
f 84/112/291 100/122/292 101/123/293
f 103/69/294 102/124/295 104/114/296
f 106/66/297 86/113/297 75/104/297
f 75/104/298 88/125/299 106/66/300
f 88/125/301 107/57/302 106/66/303
f 114/58/304 107/57/304 89/126/304
f 91/53/305 114/58/305 89/126/305
f 108/54/306 91/53/307 92/115/307
f 96/118/308 109/76/308 95/117/309
f 109/76/310 96/118/310 110/80/311
f 98/119/312 110/80/312 96/118/312
f 101/123/313 111/127/313 99/121/313
f 103/69/314 104/114/315 105/70/316
f 116/61/317 111/127/318 112/62/319
f 86/113/320 73/128/320 75/104/320
f 77/103/321 89/126/322 88/125/321
f 89/126/323 77/103/324 78/129/324
f 90/130/325 93/108/325 92/115/326
f 79/107/327 81/110/328 96/118/329
f 96/118/330 81/110/330 98/119/331
f 85/131/332 102/124/333 84/112/334
f 79/107/335 78/129/336 69/97/336
f 79/107/337 69/97/337 82/109/337
f 71/101/338 82/109/338 70/99/338
f 71/101/339 72/100/340 85/131/340
f 74/132/341 68/102/342 73/128/342
f 76/105/343 75/104/343 73/128/344
f 73/128/345 68/102/345 76/105/345
f 76/105/346 78/129/347 77/103/346
f 80/106/348 78/129/348 79/107/349
f 71/101/350 83/111/351 81/110/352
f 71/101/353 85/131/353 84/112/353
f 91/53/354 89/126/354 90/130/355
f 90/130/356 92/115/356 91/53/356
f 101/123/357 99/121/357 97/120/357
f 104/114/358 87/65/359 105/70/359
f 87/65/360 86/113/360 106/66/360
f 88/125/361 89/126/361 107/57/361
f 94/116/362 108/54/363 92/115/364
f 111/127/365 101/123/366 100/122/367 113/73/368
f 113/73/369 112/62/370 111/127/371
f 113/73/372 100/122/373 102/124/372
f 102/124/374 103/69/374 113/73/374
f 108/54/375 94/116/376 115/75/377
f 95/117/378 115/75/378 94/116/378
f 115/75/379 95/117/379 109/76/379
f 99/121/380 116/61/381 117/79/382
f 116/61/383 99/121/383 111/127/383
f 110/80/384 98/119/385 99/121/386 117/79/387
f 73/128/388 86/113/389 104/114/389 74/132/389
f 77/103/390 88/125/391 75/104/392
f 90/130/393 89/126/394 78/129/395
f 78/129/396 80/106/397 90/130/398
f 80/106/399 93/108/399 90/130/400
f 93/108/401 79/107/402 96/118/401
f 83/111/403 97/120/404 81/110/405
f 101/123/406 97/120/407 83/111/408
f 84/112/409 101/123/409 83/111/409
f 102/124/410 100/122/411 84/112/412
f 74/132/413 102/124/413 85/131/413
f 102/124/414 74/132/415 104/114/416
f 67/98/417 76/105/418 68/102/419
f 67/98/420 78/129/421 76/105/422
f 67/98/423 69/97/424 78/129/425
f 70/99/426 82/109/427 69/97/428
f 72/100/429 74/132/429 85/131/429
f 74/132/430 72/100/431 68/102/432
