# Blender 4.1.0
# www.blender.org
mtllib kiwi.mtl
o kiwi_cut.001
v -0.945426 0.056057 -0.166132
v -0.673783 0.709399 -0.770665
v -0.254942 0.291014 0.331122
v -0.062218 0.914032 -0.300991
v -0.837920 0.276591 -0.540143
v -0.565035 0.034805 0.092175
v -0.295263 0.797318 -0.633392
v -0.040618 0.547001 0.031363
v -0.319286 0.263722 -0.356788
v -0.841285 0.879652 -0.739014
v -0.901179 0.112435 -0.349599
v -0.771380 0.011351 -0.050015
v -0.144715 0.858687 -0.469231
v -0.125480 0.374804 0.203605
v -0.349733 0.428721 0.528092
v -1.145815 0.154146 -0.054612
v -0.741138 0.506896 -0.713642
v -0.379447 0.142687 0.227217
v -0.485868 0.745359 -0.740428
v -0.010540 0.755314 -0.169789
v -0.123836 1.113341 -0.206317
v -0.432878 1.058392 -0.572856
v -0.781158 0.154235 0.350325
v -0.079752 0.781826 0.250570
v -0.127634 0.364375 -0.184471
v -0.556493 0.220965 -0.490422
v -0.404978 0.070415 -0.149299
v -0.260866 0.530234 -0.557997
v -1.123733 0.426163 -0.492711
v -1.173702 0.244765 -0.283894
v -0.480488 0.483140 -0.678240
v -0.640264 0.045965 -0.279797
v -0.220105 0.184428 0.011284
v -0.053312 0.988035 0.004409
v -0.177791 0.586240 0.434936
v -0.562498 0.268408 0.478758
v -0.989546 0.121344 0.165909
v -0.645681 0.985606 -0.693381
v -0.251840 1.106538 -0.393337
v -0.091343 0.615408 -0.380339
v -0.994699 0.668784 -0.675891
v -0.336298 1.319916 -0.135911
v -0.737746 1.224160 -0.490545
v -1.260514 0.340613 0.174673
v -0.835845 0.434220 0.561238
v -0.463969 0.690573 0.640759
v -0.266639 1.105478 0.268779
v -0.519587 1.293599 -0.323671
v -0.952204 1.116919 -0.596696
v -1.058006 0.358522 0.398708
v -0.605039 0.564679 0.653139
v -0.339436 0.888378 0.501114
v -0.263023 1.280821 0.012841
v -1.341740 0.389501 0.001536
v -1.338342 0.545233 -0.225546
v -1.241752 0.770007 -0.439828
v -1.084861 1.001987 -0.590185
v -0.246529 1.011916 0.432624
v -0.348373 0.804272 0.614964
v -1.175741 0.304928 0.332590
v -1.338806 0.334022 0.087565
v -0.267433 1.334711 -0.072654
v -0.209417 1.223903 0.163719
v -0.610574 1.306744 -0.455803
v -0.410021 1.345612 -0.265316
v -0.736643 0.454727 0.653560
v -0.962725 0.345778 0.535558
v -1.029530 1.079913 -0.637438
v -0.833201 1.210329 -0.588143
v -1.398372 0.443247 -0.148375
v -0.513666 0.616497 0.689268
v -1.353890 0.630878 -0.371986
v -1.209141 0.879850 -0.562604
v -0.498237 0.744825 0.517776
v -0.680127 0.580245 0.537089
v -0.755081 0.640313 0.355113
v -0.916258 0.480189 0.393444
v -0.996524 0.558257 0.178160
v -1.146326 0.421174 0.196351
v -1.249938 0.487347 -0.030163
v -0.403657 0.957113 0.319548
v -0.581148 0.800611 0.332310
v -0.669008 0.865585 0.127072
v -0.835157 0.710316 0.152042
v -0.919730 0.780844 -0.057377
v -1.092349 0.626565 -0.041887
v -1.192421 0.687270 -0.255897
v -0.347799 1.174432 0.065924
v -0.500515 1.023866 0.100532
v -0.585756 1.100049 -0.118109
v -0.748617 0.942035 -0.084995
v -0.821418 1.021628 -0.293305
v -1.002690 0.853687 -0.268236
v -1.069424 0.928831 -0.462429
v -0.440639 1.236870 -0.141710
v -0.658454 1.179155 -0.325570
v -0.889948 1.088732 -0.477784
v -0.810875 0.689986 -0.749682
v -0.056405 0.784442 -0.345318
v -0.414887 1.215350 -0.432156
v -0.843311 1.050909 -0.686397
v -0.987634 0.212580 0.365045
v -0.535377 0.433775 0.614367
v -0.189307 0.793902 0.455373
v -0.139817 1.186077 -0.034415
v -0.105679 0.348704 0.012967
v -0.471990 0.124173 -0.325830
v -0.358850 0.637822 -0.680091
v -1.018378 0.245197 -0.430416
v -1.050135 0.121579 -0.225093
v -1.287848 0.275300 -0.105528
v -1.286103 0.417996 -0.334414
v -0.393770 0.362942 -0.537530
v -0.649665 0.352699 -0.625780
v -0.581090 0.606185 -0.752138
v -0.581320 0.008509 -0.102261
v -0.810206 0.031277 -0.221968
v -0.731296 0.139008 -0.429259
v -0.225972 0.227057 0.191088
v -0.377500 0.075343 0.038096
v -0.252643 0.196249 -0.173931
v -0.120729 1.010905 0.220913
v -0.019808 0.764936 0.032749
v -0.040018 0.948515 -0.176233
v -0.328554 0.605452 0.593506
v -0.205628 0.410644 0.386050
v -0.080806 0.564211 0.238705
v -0.766030 0.288741 0.527774
v -0.570227 0.126276 0.294544
v -0.376433 0.269131 0.403503
v -1.182403 0.211082 0.139637
v -0.969517 0.066060 -0.027087
v -0.775173 0.056663 0.147095
v -0.628681 1.150336 -0.595646
v -0.451455 0.898219 -0.678967
v -0.654644 0.833707 -0.755628
v -0.247030 1.241028 -0.239717
v -0.130965 1.002934 -0.353356
v -0.267793 0.955646 -0.534693
v -0.043271 0.558313 -0.180292
v -0.183253 0.433772 -0.381891
v -0.178994 0.698898 -0.536825
v -0.932020 0.454747 -0.623845
v -1.188576 0.645342 -0.545989
v -1.027228 0.887696 -0.681754
v -1.030637 1.081595 -0.652822
v -0.504750 0.608957 0.699912
v -1.366017 0.621952 -0.385188
v -1.410711 0.431934 -0.158339
v -1.218151 0.875025 -0.578081
v -0.400020 1.354183 -0.277161
v -0.254332 1.341055 -0.077409
v -0.828366 1.217470 -0.604237
v -0.602855 1.315515 -0.470731
v -1.179939 0.288446 0.340343
v -1.346750 0.320746 0.085906
v -0.735137 0.440189 0.665485
v -0.964458 0.329125 0.546631
v -0.332141 0.802821 0.625622
v -0.191708 1.228391 0.167408
v -0.228465 1.013503 0.441046
v -0.324279 1.356565 -0.175464
v -0.719931 1.273140 -0.541240
v -1.273446 0.301993 0.216024
v -0.853736 0.382629 0.615717
v -0.415195 0.708071 0.675138
v -0.206461 1.128719 0.308742
v -0.500727 1.342061 -0.372303
v -0.934924 1.157126 -0.635025
v -1.076299 0.306777 0.452917
v -0.620486 0.525035 0.692901
v -0.279030 0.907995 0.546739
v -0.217520 1.300624 0.039746
v -1.391772 0.372865 -0.035677
v -1.401772 0.521803 -0.269251
v -1.301345 0.751228 -0.485694
v -1.127326 0.990781 -0.626097
vn -0.1386 -0.4030 -0.9046
vn -0.3612 -0.4343 -0.8252
vn -0.4232 -0.2083 -0.8818
vn -0.2268 -0.1347 -0.9646
vn 0.0864 0.2084 -0.9742
vn -0.0133 -0.0482 -0.9987
vn -0.1563 0.1513 -0.9761
vn -0.1178 -0.9911 0.0620
vn -0.3573 -0.9290 0.0964
vn -0.3431 -0.9270 -0.1518
vn -0.1566 -0.9506 -0.2681
vn 0.1273 -0.2373 -0.9631
vn 0.9943 -0.0044 -0.1068
vn 0.9482 -0.2648 -0.1757
vn 0.8668 -0.2338 -0.4405
vn 0.9196 0.0481 -0.3900
vn 0.7571 0.4387 -0.4841
vn 0.8979 0.2664 -0.3504
vn 0.7601 0.2393 -0.6041
vn 0.4889 -0.4772 0.7302
vn 0.3889 -0.6865 0.6144
vn 0.5975 -0.6156 0.5139
vn 0.7187 -0.4150 0.5579
vn 0.9506 0.2809 -0.1320
vn -0.4626 0.8135 -0.3525
vn -0.5568 0.7590 0.3375
vn -0.1844 0.9553 -0.2310
vn -0.4286 0.7406 -0.5175
vn 0.3272 0.9309 -0.1627
vn 0.6687 0.6076 -0.4286
vn 0.5993 0.5501 -0.5815
vn 0.4865 0.5831 -0.6506
vn 0.2749 0.5123 -0.8136
vn 0.1728 0.9244 -0.3401
vn 0.4188 0.5093 -0.7518
vn -0.5004 0.6199 0.6044
vn -0.5686 0.6823 0.4594
vn -0.5564 0.5994 0.5755
vn -0.1916 0.0712 0.9789
vn 0.1226 0.9207 0.3705
vn -0.4440 0.7466 0.4954
vn 0.2124 0.7043 0.6774
vn 0.3787 0.8794 0.2885
vn 0.1831 0.4086 -0.8941
vn -0.0191 0.3563 -0.9342
vn -0.6563 -0.5076 -0.5582
vn -0.9567 -0.2480 -0.1522
vn -0.9928 0.1190 -0.0136
vn -0.9623 -0.0742 -0.2618
vn -0.3753 0.0302 -0.9264
vn -0.5898 0.4432 -0.6751
vn 0.9304 0.0826 0.3571
vn 0.8310 0.0681 0.5521
vn 0.8013 -0.1643 0.5753
vn 0.9289 -0.1605 0.3339
vn 0.0544 0.9981 0.0271
vn 0.3867 0.9141 -0.1220
vn -0.6092 -0.4307 0.6659
vn -0.5158 -0.8278 0.2206
vn -0.3372 -0.8909 0.3043
vn -0.2827 -0.8357 0.4709
vn 0.0023 -0.7464 0.6655
vn -0.5831 -0.3969 0.7088
vn -0.0807 -0.8549 0.5124
vn -0.7621 0.2265 -0.6065
vn -0.8041 0.5016 -0.3192
vn 0.2788 -0.5527 0.7853
vn 0.1864 -0.7219 0.6664
vn -0.0668 -0.1919 0.9791
vn 0.6070 -0.2396 0.7577
vn 0.2207 0.0406 0.9745
vn -0.5990 0.5859 0.5459
vn -0.6375 0.5694 0.5190
vn -0.6635 -0.1549 0.7319
vn 0.2922 0.1900 0.9373
vn 0.8159 0.5056 -0.2806
vn 0.9029 0.2822 0.3243
vn 0.4391 0.4498 0.7777
vn -0.5222 0.7719 0.3626
vn 0.9504 0.2899 0.1131
vn 0.8685 0.4954 -0.0164
vn -0.4366 0.7940 0.4230
vn 0.8606 -0.4157 0.2943
vn 0.6649 -0.6755 0.3188
vn 0.7047 -0.7088 0.0308
vn 0.8873 -0.4607 0.0208
vn 0.9733 -0.2119 0.0888
vn 0.8317 -0.4899 -0.2613
vn -0.5284 -0.4531 -0.7180
vn -0.4324 -0.6294 -0.6457
vn -0.5989 -0.6697 -0.4392
vn 0.7361 -0.4771 -0.4802
vn 0.4386 -0.8712 -0.2206
vn 0.1455 -0.9866 -0.0731
vn 0.0994 -0.9112 -0.3998
vn 0.3714 -0.7850 -0.4958
vn 0.4320 -0.8924 0.1306
vn 0.6672 -0.6851 -0.2924
vn 0.4647 -0.5834 -0.6661
vn 0.5772 -0.6372 -0.5107
vn 0.2359 -0.7011 -0.6729
vn 0.1097 0.6337 0.7658
vn -0.4722 0.6810 0.5597
vn -0.0536 0.3044 0.9510
vn -0.3965 -0.0027 0.9180
vn 0.6416 -0.3816 -0.6654
vn 0.3061 -0.4495 -0.8392
vn 0.5026 -0.1677 -0.8481
vn 0.9890 0.0408 0.1422
vn 0.3702 0.3637 -0.8548
vn 0.5751 0.1795 -0.7981
vn 0.3102 0.0815 -0.9472
vn 0.7484 -0.0702 -0.6596
vn -0.2869 -0.8019 -0.5241
vn -0.4812 -0.8235 -0.3006
vn -0.2158 -0.6175 -0.7564
vn -0.0342 -0.7739 -0.6324
vn -0.5477 -0.8366 -0.0100
vn 0.5771 0.4254 -0.6971
vn -0.6837 0.5524 0.4769
vn -0.6768 0.6073 0.4162
vn -0.9842 0.0070 0.1770
vn -0.6709 -0.7206 -0.1748
vn 0.0444 -0.5865 -0.8087
vn -0.9261 -0.3456 0.1511
vn -0.6650 0.6455 0.3756
vn -0.5622 -0.2730 -0.7806
vn -0.1199 -0.9397 0.3204
vn 0.1389 -0.9562 0.2578
vn 0.1389 -0.8551 0.4994
vn -0.9332 0.2993 -0.1990
vn -0.8803 -0.0755 0.4684
vn 0.3814 -0.8245 0.4181
vn -0.4579 0.7171 0.5254
vn -0.6534 0.6752 0.3422
vn -0.6162 0.7288 0.2986
vn -0.4914 0.7823 0.3828
vn -0.1152 0.9747 -0.1915
vt 0.480889 0.359239
vt 0.511332 0.395340
vt 0.464974 0.417996
vt 0.444007 0.376938
vt 0.407013 0.340693
vt 0.434078 0.347522
vt 0.401992 0.382968
vt 0.651366 0.300583
vt 0.673204 0.336148
vt 0.643481 0.346059
vt 0.623162 0.325998
vt 0.453331 0.328743
vt 0.471062 0.151855
vt 0.504010 0.173722
vt 0.474120 0.204908
vt 0.447500 0.183695
vt 0.401249 0.176972
vt 0.426880 0.166829
vt 0.421284 0.209051
vt 0.664554 0.108616
vt 0.662725 0.153692
vt 0.631574 0.147971
vt 0.621318 0.119200
vt 0.433355 0.138236
vt 0.727820 0.705681
vt 0.754283 0.714976
vt 0.783172 0.726651
vt 0.313495 0.359235
vt 0.304651 0.172531
vt 0.349961 0.147939
vt 0.367471 0.193150
vt 0.328462 0.222401
vt 0.331564 0.306009
vt 0.291620 0.267310
vt 0.360321 0.262112
vt 0.960772 0.461761
vt 0.937654 0.451916
vt 0.910084 0.424629
vt 0.938753 0.438790
vt 0.952017 0.685238
vt 0.967250 0.655932
vt 0.983700 0.620303
vt 0.415362 0.037377
vt 0.371773 0.329430
vt 0.359303 0.377435
vt 0.598657 0.458898
vt 0.652361 0.477303
vt 0.669781 0.517852
vt 0.556063 0.501153
vt 0.412740 0.429852
vt 0.360823 0.428744
vt 0.528886 0.075818
vt 0.574091 0.041602
vt 0.603381 0.081962
vt 0.563839 0.109370
vt 0.906123 0.716967
vt 0.343871 0.098130
vt 0.778090 0.332315
vt 0.728579 0.365831
vt 0.714731 0.315434
vt 0.756262 0.280332
vt 0.750829 0.194561
vt 0.790439 0.231950
vt 0.722784 0.240803
vt 0.441798 0.481945
vt 0.688420 0.663710
vt 0.714526 0.116436
vt 0.706384 0.168194
vt 0.765828 0.140878
vt 0.652087 0.064076
vt 0.707361 0.063279
vt 0.849761 0.407420
vt 0.814829 0.421938
vt 0.782906 0.414143
vt 0.816908 0.404613
vt 0.627848 0.017064
vt 0.392053 0.137304
vt 0.477845 0.049833
vt 0.527842 0.004338
vt 0.784967 0.710303
vt 0.815446 0.727888
vt 0.783172 0.726651
vt 0.415362 0.037377
vt 0.447520 0.097788
vt 0.395361 0.091638
vt 0.343871 0.098130
vt 0.906123 0.716967
vt 0.929274 0.703017
vt 0.588358 0.143166
vt 0.613165 0.171674
vt 0.590918 0.198917
vt 0.562690 0.171008
vt 0.532842 0.141083
vt 0.536162 0.199469
vt 0.551023 0.430909
vt 0.581507 0.392760
vt 0.623150 0.414357
vt 0.505627 0.228256
vt 0.595546 0.250533
vt 0.623731 0.274265
vt 0.598240 0.302344
vt 0.570578 0.278504
vt 0.619998 0.223693
vt 0.566900 0.225593
vt 0.508298 0.281397
vt 0.539316 0.253478
vt 0.542634 0.307371
vt 0.994450 0.545840
vt 0.987346 0.514469
vt 0.979893 0.485630
vt 0.881382 0.409900
vt 0.816908 0.404613
vt 0.790439 0.231950
vt 0.475033 0.256236
vt 0.478433 0.306437
vt 0.448188 0.281142
vt 0.495258 0.114815
vt 0.394092 0.288364
vt 0.420215 0.258667
vt 0.424945 0.306578
vt 0.446316 0.233240
vt 0.601641 0.356645
vt 0.636355 0.375151
vt 0.546193 0.365120
vt 0.573028 0.332818
vt 0.679683 0.379817
vt 0.392276 0.231426
vt 0.721942 0.441692
vt 0.711936 0.462584
vt 0.683689 0.488348
vt 0.697375 0.461549
vt 0.672147 0.426482
vt 0.512332 0.335108
vt 0.726656 0.421770
vt 0.687862 0.520031
vt 0.668615 0.553414
vt 0.669781 0.517852
vt 0.502648 0.462759
vt 0.686458 0.275340
vt 0.652161 0.246913
vt 0.682761 0.213291
vt 0.556063 0.501153
vt 0.667229 0.592682
vt 0.749680 0.423091
vt 0.938753 0.438790
vt 0.707361 0.063279
vt 0.644418 0.193418
vt 0.727820 0.705681
vt 0.360823 0.428744
vt 0.939532 0.682563
vt 0.909230 0.465407
vt 0.873638 0.495400
vt 0.844000 0.452531
vt 0.879189 0.427209
vt 0.988814 0.581070
vt 0.976794 0.544765
vt 0.678182 0.630945
vt 0.701251 0.663507
vt 0.707704 0.686744
vt 0.688420 0.663710
vt 0.878323 0.721711
vt 0.907919 0.704600
vt 0.747880 0.436095
vt 0.965905 0.484147
vt 0.728377 0.692534
vt 0.847610 0.729711
vt 0.848961 0.713663
vt 0.885390 0.684498
vt 0.819614 0.685455
vt 0.857515 0.648628
vt 0.945290 0.507802
vt 0.684741 0.593529
vt 0.667229 0.592682
vt 0.765828 0.140878
vt 0.966710 0.617860
vt 0.943499 0.576872
vt 0.927536 0.651788
vt 0.899267 0.611597
vt 0.774208 0.454263
vt 0.754421 0.675677
vt 0.291620 0.267310
vt 0.727740 0.489466
vt 0.715170 0.557755
vt 0.718436 0.634771
vt 0.907647 0.537023
vt 0.826954 0.606714
vt 0.866807 0.570163
vt 0.803657 0.489750
vt 0.834668 0.529606
vt 0.759529 0.524945
vt 0.794061 0.564470
vt 0.753637 0.600027
vt 0.788939 0.643733
s 1
usemtl kiwi_texture.001
f 17/1/1 143/2/2 41/3/3 98/4/4
f 136/5/5 2/6/6 98/4/4 10/7/7
f 12/8/8 132/9/9 1/10/10 117/11/11
f 2/6/6 115/12/12 17/1/1 98/4/4
f 20/13/13 140/14/14 40/15/15 99/16/16
f 138/17/17 4/18/18 99/16/16 13/19/19
f 15/20/20 130/21/21 3/22/22 126/23/23
f 4/18/18 124/24/24 20/13/13 99/16/16
f 169/25/25 69/26/26 163/27/27 153/28/28
f 151/29/29 137/30/30 39/31/31 100/32/32
f 134/33/33 154/34/34 100/32/32 22/35/35
f 71/36/36 51/37/37 66/38/38 171/39/39
f 173/40/40 63/41/41 167/42/42 160/43/43
f 153/28/28 134/33/33 38/44/44 101/45/45
f 112/46/46 149/47/47 175/48/48 148/49/49
f 145/50/50 146/51/51 101/45/45 10/7/7
f 24/52/52 104/53/53 35/54/54 127/55/55
f 162/56/56 152/57/57 137/30/30 151/29/29
f 155/58/58 131/59/59 37/60/60 102/61/61
f 163/27/27 154/34/34 134/33/33 153/28/28
f 128/62/62 158/63/63 102/61/61 23/64/64
f 145/50/50 150/65/65 177/66/66 146/51/51
f 15/20/20 103/67/67 36/68/68 130/21/21
f 157/69/69 128/62/62 36/68/68 103/67/67
f 125/70/70 147/71/71 103/67/67 15/20/20
f 10/7/7 101/45/45 38/44/44 136/5/5
f 67/72/72 50/73/37 60/74/73 170/75/74
f 159/76/75 125/70/70 35/54/54 104/53/53
f 124/24/24 4/18/18 138/17/17 21/77/76
f 122/78/77 161/79/78 104/53/53 24/52/52
f 35/54/54 125/70/70 15/20/20 126/23/23
f 69/26/26 43/80/37 64/81/79 163/82/27
f 160/83/43 122/78/77 34/84/80 105/85/81
f 137/30/30 152/57/57 105/85/81 21/77/76
f 152/86/57 162/87/56 62/88/82 173/40/40
f 14/89/83 119/90/84 33/91/85 106/92/86
f 140/14/14 8/93/87 106/92/86 25/94/88
f 29/95/89 109/96/90 30/97/91 112/46/46
f 8/93/87 127/55/55 14/89/83 106/92/86
f 40/15/15 140/14/14 25/94/88 141/98/92
f 27/99/93 116/100/94 32/101/95 107/102/96
f 120/103/97 27/99/93 121/104/98 33/91/85
f 113/105/99 9/106/100 107/102/96 26/107/101
f 172/108/102 59/109/103 166/110/104 159/76/75
f 9/106/100 121/104/98 27/99/93 107/102/96
f 165/111/105 67/72/72 170/112/74 158/113/63
f 28/114/106 113/105/99 31/115/107 108/116/108
f 24/52/52 127/55/55 8/93/87 123/117/109
f 135/118/110 7/119/111 108/116/108 19/120/112
f 123/117/109 20/13/13 124/24/24 34/84/80
f 7/119/111 142/121/113 28/114/106 108/116/108
f 11/122/114 110/123/115 30/97/91 109/96/90
f 143/2/2 5/124/116 109/96/90 29/95/89
f 5/124/116 118/125/117 11/122/114 109/96/90
f 1/10/10 132/9/9 16/126/118 110/123/115
f 22/35/35 100/32/32 39/31/31 139/127/119
f 11/122/114 117/11/11 1/10/10 110/123/115
f 61/128/120 54/129/37 70/130/121 174/131/122
f 112/46/46 30/97/91 111/132/123 149/47/47
f 114/133/124 17/1/1 115/12/12 31/115/107
f 131/59/59 156/134/125 111/132/123 16/126/118
f 70/130/121 55/135/37 72/136/126 175/137/48
f 144/138/127 29/95/89 112/46/46 148/49/49
f 115/12/12 2/6/6 136/5/5 19/120/112
f 23/64/64 102/61/61 37/60/60 133/139/128
f 143/2/2 17/1/1 114/133/124 5/124/116
f 23/64/64 133/139/128 6/140/129 129/141/130
f 144/138/127 148/142/49 176/143/131 150/65/65
f 155/58/58 170/75/74 60/74/73 164/144/132
f 13/19/19 99/16/16 40/15/15 142/121/113
f 166/110/104 71/36/36 171/145/39 147/146/71
f 21/77/76 105/85/81 34/84/80 124/24/24
f 6/140/129 133/139/128 12/8/8 116/100/94
f 27/99/93 120/103/97 6/140/129 116/100/94
f 138/17/17 13/19/19 139/127/119 39/31/31
f 3/22/22 130/21/21 18/147/133 119/90/84
f 39/31/31 137/30/30 21/77/76 138/17/17
f 111/132/123 156/134/125 174/131/122 149/47/47
f 14/89/83 126/23/23 3/22/22 119/90/84
f 32/101/95 116/100/94 12/8/8 117/11/11
f 18/147/133 129/141/130 6/140/129 120/103/97
f 135/118/110 19/120/112 136/5/5 38/44/44
f 141/98/92 25/94/88 121/104/98 9/106/100
f 36/68/68 128/62/62 23/64/64 129/141/130
f 26/107/101 107/102/96 32/101/95 118/125/117
f 169/148/25 153/28/28 101/45/45 146/149/51
f 62/88/82 53/150/37 63/41/41 173/40/40
f 140/14/14 20/13/13 123/117/109 8/93/87
f 75/151/37 76/152/37 77/153/37 45/154/37
f 58/155/134 52/156/37 59/109/103 172/108/102
f 164/144/132 156/134/125 131/59/59 155/58/58
f 73/157/135 57/158/37 68/159/136 177/160/66
f 66/38/38 45/154/37 67/72/72 165/111/105
f 171/145/39 157/69/69 103/67/67 147/146/71
f 26/107/101 118/125/117 5/124/116 114/133/124
f 25/94/88 106/92/86 33/91/85 121/104/98
f 65/161/137 42/162/37 62/88/82 162/87/56
f 60/74/73 44/163/37 61/128/120 164/144/132
f 46/164/37 51/37/37 71/36/36
f 41/3/3 143/2/2 29/95/89 144/138/127
f 22/35/35 139/127/119 7/119/111 135/118/110
f 68/159/136 49/165/37 69/26/26 169/25/25
f 19/120/112 108/116/108 31/115/107 115/12/12
f 168/166/138 65/161/137 162/56/56 151/29/29
f 129/141/130 18/147/133 130/21/21 36/68/68
f 166/110/104 147/71/71 125/70/70 159/76/75
f 167/42/42 161/79/78 122/78/77 160/43/43
f 64/81/79 48/167/37 65/161/137 168/166/138
f 95/168/37 48/167/37 96/169/37 90/170/37
f 37/60/60 131/59/59 16/126/118 132/9/9
f 173/40/40 160/83/43 105/85/81 152/86/57
f 142/121/113 7/119/111 139/127/119 13/19/19
f 46/164/37 74/171/37 75/151/37 51/37/37
f 10/7/7 98/4/4 41/3/3 145/50/50
f 72/136/126 56/172/37 73/157/135 176/173/131
f 145/50/50 41/3/3 144/138/127 150/65/65
f 157/174/69 171/39/39 66/38/38 165/111/105
f 30/97/91 110/123/115 16/126/118 111/132/123
f 63/41/41 47/175/37 58/155/134 167/42/42
f 31/115/107 113/105/99 26/107/101 114/133/124
f 47/175/37 81/176/37 52/156/37 58/155/134
f 74/171/37 46/164/37 59/109/103 52/156/37
f 146/149/51 177/160/66 68/159/136 169/148/25
f 47/175/37 88/177/37 89/178/37 81/176/37
f 50/73/37 79/179/37 44/163/37 60/74/73
f 88/177/37 47/175/37 63/41/41 53/150/37
f 68/159/136 57/158/37 49/165/37
f 34/84/80 122/78/77 24/52/52 123/117/109
f 43/80/37 96/169/37 48/167/37 64/81/79
f 95/168/37 42/162/37 65/161/137 48/167/37
f 165/111/105 158/63/63 128/62/62 157/174/69
f 51/37/37 75/151/37 45/154/37 66/38/38
f 77/153/37 50/73/37 67/72/72 45/154/37
f 59/109/103 46/164/37 71/36/36 166/110/104
f 175/137/48 72/136/126 176/143/131 148/142/49
f 97/180/37 43/80/37 69/26/26 49/165/37
f 154/181/34 163/82/27 64/81/79 168/166/138
f 80/182/37 55/135/37 70/130/121 54/129/37
f 87/183/37 56/172/37 72/136/126 55/135/37
f 97/180/37 49/165/37 57/158/37 94/184/37
f 28/114/106 141/98/92 9/106/100 113/105/99
f 44/163/37 54/129/37 61/128/120
f 52/156/37 81/176/37 82/185/37 74/171/37
f 53/150/37 42/162/37 95/168/37 88/177/37
f 126/23/23 14/89/83 127/55/55 35/54/54
f 94/184/37 57/158/37 73/157/135 56/172/37
f 38/44/44 134/33/33 22/35/35 135/118/110
f 82/185/37 76/152/37 75/151/37 74/171/37
f 89/178/37 90/170/37 91/186/37 83/187/37
f 77/153/37 78/188/37 79/179/37 50/73/37
f 84/189/37 78/188/37 77/153/37 76/152/37
f 82/185/37 83/187/37 84/189/37 76/152/37
f 86/190/37 80/182/37 79/179/37 78/188/37
f 174/131/122 70/130/121 175/48/48 149/47/47
f 89/178/37 83/187/37 82/185/37 81/176/37
f 84/189/37 85/191/37 86/190/37 78/188/37
f 91/186/37 85/191/37 84/189/37 83/187/37
f 86/190/37 87/183/37 55/135/37 80/182/37
f 93/192/37 87/183/37 86/190/37 85/191/37
f 95/168/37 90/170/37 89/178/37 88/177/37
f 91/186/37 92/193/37 93/192/37 85/191/37
f 96/169/37 92/193/37 91/186/37 90/170/37
f 168/166/138 151/29/29 100/32/32 154/181/34
f 93/192/37 94/184/37 56/172/37 87/183/37
f 97/180/37 94/184/37 93/192/37 92/193/37
f 33/91/85 119/90/84 18/147/133 120/103/97
f 79/179/37 80/182/37 54/129/37 44/163/37
f 164/144/132 61/128/120 174/131/122 156/134/125
f 176/173/131 73/157/135 177/66/66 150/65/65
f 117/11/11 11/122/114 118/125/117 32/101/95
f 172/108/102 159/76/75 104/53/53 161/79/78
f 132/9/9 12/8/8 133/139/128 37/60/60
f 170/112/74 155/58/58 102/61/61 158/113/63
f 161/79/78 167/42/42 58/155/134 172/108/102
f 62/88/82 42/162/37 53/150/37
f 141/98/92 28/114/106 142/121/113 40/15/15
f 96/169/37 43/80/37 97/180/37 92/193/37
