# Blender 4.1.0
# www.blender.org
mtllib lychee.mtl
o food_lychee_01
v -0.196319 0.078502 -0.178458
v 0.119135 0.108397 0.300412
v 0.732335 0.690831 -0.323635
v 0.082864 0.135935 -0.141047
v -1.040231 1.203374 -0.564575
v 0.201440 0.697456 -0.797996
v -1.251923 1.335439 -0.100727
v 1.061300 1.637641 -0.253583
v -0.129835 2.123430 1.254218
v 0.080374 1.572311 1.301782
v 0.181371 0.199005 0.499425
v 0.645563 2.365842 -0.422803
v 0.365286 1.258045 -0.950362
v -0.044069 2.644358 -0.034224
v -1.279793 1.672126 0.009718
v -0.151790 2.657888 -0.394595
v -0.114093 0.011825 0.036378
v 0.247279 0.254282 -0.319510
v 0.051020 0.076064 0.130823
v 0.313757 0.186778 0.057677
v -0.707403 1.951998 -0.875404
v -0.765578 0.340709 -0.087825
v -0.131055 0.183087 -0.410754
v 0.116106 0.474426 0.945245
v 0.726181 0.521644 0.015683
v -0.408093 0.142370 -0.246898
v 0.470203 0.300020 0.372571
v 0.521878 0.328919 -0.092979
v -0.536866 0.182273 0.299535
v -0.121646 0.675043 -0.835699
v 0.025491 0.369606 -0.584028
v -0.399967 0.398322 -0.582533
v 0.401478 0.493293 -0.524234
v -0.246417 0.502813 -0.711378
v 0.353667 0.381114 0.646008
v 0.545852 0.909909 -0.718958
v -0.983595 0.554509 0.056914
v 0.749277 0.584547 0.351330
v 0.765712 1.683363 -0.725214
v 0.933317 1.507378 -0.508781
v 0.082284 0.975063 -0.964903
v 0.238711 2.553606 0.238041
v 0.980524 0.907198 0.122703
v -0.107293 1.086139 -1.019011
v -0.807378 1.401101 -0.835550
v -0.781772 0.982404 -0.747788
v 0.896622 1.098728 -0.407010
v 0.996692 1.060791 -0.133705
v 1.022156 1.098259 0.338382
v 0.493966 1.327883 1.098142
v 0.680603 0.817833 0.762839
v -0.234279 0.050065 0.242029
v 0.346400 0.492906 0.830231
v 0.471037 0.966672 1.041922
v 0.235029 1.231386 1.191906
v -0.968413 0.623893 -0.227620
v -1.060256 0.808381 0.441662
v -1.129139 0.857517 0.166798
v -0.810793 0.477864 0.494368
v -1.138747 0.885916 -0.129740
v -0.261311 0.217193 0.654585
v -0.288766 0.197963 0.656048
v -0.287001 0.198501 0.647967
v -0.554217 0.168926 0.060160
v -1.117861 1.713628 -0.453929
v -0.736157 0.493638 -0.438637
v -1.221615 1.382323 0.472062
v -0.590410 0.287445 -0.311016
v -0.801596 0.356668 0.262741
v -0.981002 0.802920 -0.451143
v -1.017095 1.586213 0.908557
v -1.021935 1.129585 0.750708
v -0.389137 0.088391 -0.051339
v -0.219335 0.075745 0.467904
v -0.284428 0.065616 0.076202
v -0.203468 -0.010384 0.143911
v -0.203562 -0.013563 0.147294
v -0.203089 -0.009601 0.150474
v -0.575168 0.266511 0.497485
v -0.515821 1.228369 -0.993147
v 0.070436 2.811129 0.035146
v 0.134402 2.796207 0.241318
v 0.345514 2.583483 -0.006035
v 0.340283 2.484819 -0.529210
v 0.025541 2.657356 -0.220269
v -0.058037 2.877169 0.159337
v 0.637348 2.091649 -0.706730
v 0.059459 2.651510 0.417908
v -0.222818 2.588060 0.316292
v -0.063252 1.636639 -1.105809
v 0.066483 2.444091 1.061476
v -0.330707 2.555384 0.841701
v -0.052390 2.417660 -0.795454
v -0.746386 2.346868 -0.562010
v -0.998331 2.195718 -0.357631
v 0.487729 1.671727 -0.925149
v 0.565451 2.439345 0.350010
v -0.339586 2.253868 -0.897545
v 0.240106 2.180959 -0.923493
v -0.201283 2.615145 0.527622
v -0.780252 2.501221 -0.140307
v 0.976499 1.995872 -0.293644
v 0.538444 2.399890 0.728950
v -0.028380 1.943274 1.326188
v 0.746555 2.404276 -0.128456
v 0.833155 2.039070 0.686591
v 0.414089 1.831931 1.210606
v 0.931026 2.149688 0.245141
v -1.167137 2.149418 0.069541
v -0.901060 2.013547 0.937971
v -0.975685 2.397919 0.376444
v -0.338825 2.658489 -0.155893
v -0.588129 2.563807 0.545472
v -0.234415 2.018136 -1.028688
v -0.423059 2.623985 0.077944
v -1.151760 2.017049 0.587251
v -0.779650 1.674016 1.152652
v -0.156581 0.563238 0.997067
v -0.312598 1.663328 1.324935
v -0.397435 2.274031 1.126083
v -0.737366 2.406201 0.799434
v -0.100494 1.028449 1.196183
v -0.510293 1.206376 1.169330
v -0.112888 0.427329 0.855007
v -0.811578 0.710366 0.741515
v -0.422433 0.858569 1.064349
v -0.766185 1.043362 0.969953
v -0.475055 0.341321 0.679347
v -0.596418 0.591281 0.874952
v -0.394511 0.507247 0.897058
v -0.172267 0.793573 1.155622
v 0.490041 2.070117 1.084720
v 0.665450 1.702302 1.021305
v 0.236176 2.577935 0.758371
v 0.769375 1.425493 0.874178
v 1.087087 1.631146 0.293405
v 0.978729 1.385556 0.588204
v -0.098510 0.212306 0.654238
v 0.083661 0.323868 0.777487
v 0.193827 0.670714 0.991453
v -0.283486 0.197515 0.650940
vn -0.0152 -0.9486 -0.3162
vn 0.3083 -0.9328 0.1867
vn 0.7497 -0.5158 -0.4147
vn 0.3186 -0.9077 -0.2732
vn -0.8183 -0.1489 -0.5552
vn 0.3069 -0.5013 -0.8090
vn -0.9784 -0.1019 -0.1800
vn 0.9660 0.0422 -0.2551
vn -0.0864 0.3963 0.9140
vn 0.1813 -0.1205 0.9760
vn 0.3276 -0.8614 0.3881
vn 0.6455 0.6541 -0.3944
vn 0.4169 -0.1666 -0.8935
vn -0.0287 0.9790 -0.2018
vn -0.9813 0.0919 -0.1689
vn -0.0624 0.9464 -0.3170
vn 0.0255 -0.9918 0.1252
vn 0.3930 -0.8175 -0.4210
vn 0.2993 -0.9540 0.0150
vn 0.4555 -0.8873 -0.0724
vn -0.5520 0.2547 -0.7940
vn -0.6483 -0.7405 -0.1772
vn 0.0435 -0.8341 -0.5499
vn 0.1769 -0.5642 0.8065
vn 0.7762 -0.6226 -0.0996
vn -0.3564 -0.8543 -0.3784
vn 0.5926 -0.7656 0.2504
vn 0.6130 -0.7617 -0.2097
vn -0.4835 -0.8628 0.1479
vn -0.0609 -0.4977 -0.8652
vn 0.1875 -0.6912 -0.6979
vn -0.3135 -0.6389 -0.7025
vn 0.5047 -0.6294 -0.5909
vn -0.1563 -0.5675 -0.8084
vn 0.5306 -0.7125 0.4591
vn 0.5908 -0.3623 -0.7209
vn -0.8256 -0.5641 0.0107
vn 0.7701 -0.5831 0.2589
vn 0.7087 0.0537 -0.7034
vn 0.8247 -0.0883 -0.5586
vn 0.2075 -0.3268 -0.9220
vn 0.5204 0.8485 0.0956
vn 0.9158 -0.4015 -0.0096
vn -0.0126 -0.2714 -0.9624
vn -0.6292 -0.0415 -0.7761
vn -0.5393 -0.3587 -0.7619
vn 0.8174 -0.2841 -0.5011
vn 0.9343 -0.2820 -0.2180
vn 0.9404 -0.2583 0.2212
vn 0.5384 -0.1620 0.8270
vn 0.7066 -0.4184 0.5707
vn -0.1942 -0.9607 0.1981
vn 0.5222 -0.5757 0.6292
vn 0.5065 -0.3275 0.7976
vn 0.2747 -0.2292 0.9338
vn -0.7786 -0.5572 -0.2886
vn -0.8511 -0.4387 0.2885
vn -0.9255 -0.3662 0.0965
vn -0.6986 -0.5918 0.4021
vn -0.9258 -0.3316 -0.1816
vn 0.0478 -0.6105 0.7906
vn -0.2023 -0.5947 0.7781
vn -0.5076 0.4342 0.7441
vn -0.5323 -0.8465 -0.0052
vn -0.8966 0.1657 -0.4106
vn -0.5767 -0.6028 -0.5514
vn -0.9560 -0.1127 0.2710
vn -0.5192 -0.7470 -0.4153
vn -0.6905 -0.7083 0.1469
vn -0.7597 -0.4081 -0.5063
vn -0.7957 -0.0410 0.6043
vn -0.7875 -0.2737 0.5522
vn -0.3331 -0.9390 -0.0850
vn -0.0806 -0.9354 0.3442
vn -0.3191 -0.9467 -0.0428
vn -0.3878 -0.8859 -0.2545
vn -0.9956 0.0802 0.0479
vn -0.3685 -0.8766 0.3095
vn -0.5112 -0.7520 0.4161
vn -0.3417 -0.1995 -0.9184
vn 0.4027 0.5850 -0.7040
vn 0.6344 0.7144 0.2952
vn 0.2996 0.9535 0.0310
vn 0.3661 0.8248 -0.4309
vn 0.1735 0.9826 -0.0660
vn -0.4061 0.9136 -0.0210
vn 0.6230 0.4223 -0.6585
vn 0.1713 0.9163 0.3619
vn -0.2511 0.9628 0.1001
vn 0.0617 0.0373 -0.9974
vn 0.1750 0.7166 0.6752
vn -0.1590 0.8909 0.4255
vn 0.0218 0.7388 -0.6736
vn -0.5297 0.6725 -0.5169
vn -0.7946 0.4672 -0.3878
vn 0.3876 0.0508 -0.9204
vn 0.5007 0.8486 0.1710
vn -0.2393 0.5860 -0.7741
vn 0.3121 0.4466 -0.8386
vn -0.1197 0.9922 0.0353
vn -0.5064 0.8434 -0.1796
vn 0.8786 0.3653 -0.3077
vn 0.6011 0.7199 0.3471
vn 0.0799 0.2185 0.9726
vn 0.6363 0.7607 -0.1279
vn 0.8155 0.3808 0.4359
vn 0.4470 0.1183 0.8867
vn 0.8393 0.5202 0.1581
vn -0.8897 0.4448 -0.1029
vn -0.6013 0.3637 0.7114
vn -0.6700 0.7289 0.1406
vn -0.1993 0.9774 -0.0699
vn -0.2985 0.9419 0.1538
vn -0.1254 0.2832 -0.9508
vn -0.1688 0.9825 0.0789
vn -0.8878 0.3018 0.3474
vn -0.5403 0.0496 0.8400
vn -0.0923 -0.5876 0.8039
vn -0.1929 -0.0071 0.9812
vn -0.3223 0.5086 0.7984
vn -0.5287 0.6731 0.5170
vn 0.0221 -0.2607 0.9652
vn -0.3346 -0.2730 0.9020
vn -0.0983 -0.7108 0.6965
vn -0.6781 -0.4684 0.5664
vn -0.3409 -0.3543 0.8708
vn -0.5710 -0.3122 0.7593
vn -0.4401 -0.6873 0.5778
vn -0.4904 -0.5330 0.6895
vn -0.2489 -0.5979 0.7619
vn -0.0968 -0.3553 0.9297
vn 0.5432 0.4036 0.7362
vn 0.7278 0.0420 0.6845
vn 0.2677 0.9109 0.3141
vn 0.7589 -0.1001 0.6434
vn 0.9828 0.0905 0.1607
vn 0.8773 -0.0782 0.4736
vn 0.0813 -0.8007 0.5935
vn 0.1693 -0.7808 0.6014
vn 0.3188 -0.3832 0.8669
vn 0.2372 -0.3888 0.8903
vt 0.663064 0.327470
vt 0.683017 0.368844
vt 0.617370 0.352494
vt 0.296822 0.287743
vt 0.321406 0.220469
vt 0.352009 0.262656
vt 0.612162 0.684454
vt 0.652644 0.653787
vt 0.644868 0.678929
vt 0.261675 0.244316
vt 0.336482 0.317897
vt 0.719725 0.355826
vt 0.693936 0.341523
vt 0.729856 0.325353
vt 0.305868 0.352001
vt 0.692337 0.158225
vt 0.749093 0.143991
vt 0.680417 0.216178
vt 0.751980 0.348084
vt 0.629827 0.369281
vt 0.562455 0.370766
vt 0.572309 0.285986
vt 0.640102 0.295645
vt 0.586346 0.222885
vt 0.626336 0.252100
vt 0.268723 0.178946
vt 0.350931 0.178043
vt 0.278197 0.106734
vt 0.202026 0.203868
vt 0.196697 0.138234
vt 0.971875 0.449263
vt 0.914877 0.450615
vt 0.894906 0.396568
vt 0.188388 0.256687
vt 0.137247 0.214727
vt 0.506129 0.342857
vt 0.506179 0.273174
vt 0.472701 0.364440
vt 0.620200 0.119466
vt 0.514719 0.171560
vt 0.551845 0.110101
vt 0.271871 0.536879
vt 0.201372 0.528354
vt 0.248389 0.484752
vt 0.212490 0.441989
vt 0.277769 0.429464
vt 0.983275 0.494501
vt 0.953132 0.535487
vt 0.058757 0.386373
vt 0.029891 0.384011
vt 0.075617 0.314043
vt 0.110050 0.244744
vt 0.038191 0.251376
vt 0.167360 0.422656
vt 0.222724 0.382045
vt 0.215163 0.056687
vt 0.254947 0.032145
vt 0.578499 0.459929
vt 0.528967 0.455799
vt 0.478167 0.430492
vt 0.428925 0.295210
vt 0.639940 0.151510
vt 0.592699 0.175004
vt 0.272817 0.606814
vt 0.295409 0.691147
vt 0.248892 0.661313
vt 0.336802 0.634862
vt 0.360105 0.685160
vt 0.433807 0.462983
vt 0.502230 0.497774
vt 0.175548 0.485713
vt 0.108311 0.525457
vt 0.099152 0.436400
vt 0.052990 0.490301
vt 0.314968 0.418411
vt 0.314312 0.465188
vt 0.230585 0.573067
vt 0.297642 0.497124
vt 0.199657 0.643103
vt 0.142222 0.619439
vt 0.132818 0.370221
vt 0.236114 0.318265
vt 0.800712 0.890940
vt 0.904220 0.851825
vt 0.851457 0.928269
vt 0.270328 0.377410
vt 0.782873 0.327530
vt 0.720394 0.215757
vt 0.717555 0.213747
vt 0.766463 0.197317
vt 0.706790 0.254889
vt 0.773697 0.279906
vt 0.783612 0.234618
vt 0.836330 0.278863
vt 0.705760 0.313823
vt 0.705457 0.313224
vt 0.710858 0.297790
vt 0.334211 0.352392
vt 0.979848 0.258566
vt 0.965485 0.308246
vt 0.950330 0.281025
vt 0.926887 0.292037
vt 0.685207 0.634601
vt 0.712541 0.603401
vt 0.735840 0.667670
vt 0.957599 0.243040
vt 0.688984 0.570952
vt 0.623106 0.529127
vt 0.642883 0.563343
vt 0.622833 0.586577
vt 0.844313 0.517122
vt 0.904427 0.577486
vt 0.753341 0.616637
vt 0.711927 0.712213
vt 0.665605 0.716869
vt 0.950384 0.335346
vt 0.585950 0.732682
vt 0.507853 0.784008
vt 0.480635 0.726529
vt 0.580779 0.616858
vt 0.533251 0.694812
vt 0.926680 0.229726
vt 0.864502 0.751058
vt 0.787500 0.731768
vt 0.841284 0.688486
vt 0.550539 0.542204
vt 0.975887 0.224878
vt 0.962944 0.208637
vt 0.838047 0.815685
vt 0.925329 0.666800
vt 0.943747 0.764280
vt 0.820516 0.575297
vt 0.862312 0.607538
vt 0.504255 0.878950
vt 0.455948 0.819798
vt 0.573951 0.788929
vt 0.502862 0.618590
vt 0.431924 0.560237
vt 0.439877 0.661612
vt 0.067553 0.562041
vt 0.941663 0.816750
vt 0.763667 0.820779
vt 0.689478 0.803133
vt 0.146059 0.706201
vt 0.121922 0.682188
vt 0.803222 0.950062
vt 0.741923 0.929391
vt 0.698372 0.859865
vt 0.934376 0.053021
vt 0.910828 0.109598
vt 0.856374 0.088357
vt 0.391939 0.973267
vt 0.317059 0.939562
vt 0.489920 0.928744
vt 0.699952 0.043246
vt 0.770564 0.079388
vt 0.712018 0.073743
vt 0.393315 0.851590
vt 0.313617 0.863067
vt 0.363681 0.825508
vt 0.422431 0.894773
vt 0.561273 0.848648
vt 0.811889 0.044137
vt 0.525022 0.902958
vt 0.656685 0.750044
vt 0.849380 0.163934
vt 0.803391 0.148344
vt 0.359928 0.748190
vt 0.308802 0.786103
vt 0.260576 0.731816
vt 0.221580 0.781128
vt 0.411370 0.741029
vt 0.644278 0.193943
vt 0.702091 0.118688
vt 0.592899 0.076588
vt 0.718707 0.214920
vt 0.442871 0.245436
vt 0.469993 0.190091
vt 0.711004 0.369959
vt 0.149940 0.164518
vt 0.156009 0.086790
vt 0.380809 0.507114
vt 0.218668 0.282500
vt 0.371127 0.229913
vt 0.386606 0.478836
vt 0.404339 0.331838
vt 0.362096 0.585477
vt 0.839499 0.232312
vt 0.883123 0.225484
vt 0.706053 0.313277
vt 0.630411 0.702434
vt 0.758383 0.520150
vt 0.821737 0.453969
vt 0.951096 0.191820
vt 0.977067 0.710914
vt 0.591308 0.828709
vt 0.974304 0.595301
vt 0.243081 0.873087
vt 0.784573 0.978391
vt 0.760683 0.979243
vt 0.896945 0.032974
vt 0.567575 0.872929
vt 0.901296 0.178505
vt 0.719267 0.214604
s 1
usemtl food_lychee_01
f 19/1/19 4/2/4 20/3/20
f 23/4/23 18/5/18 4/6/4
f 83/7/83 84/8/84 85/9/85
f 31/10/31 18/5/18 23/4/23
f 23/4/23 4/6/4 1/11/1
f 1/12/1 17/13/17 75/14/75
f 23/4/23 1/11/1 26/15/26
f 124/16/124 130/17/130 138/18/138
f 73/19/73 1/12/1 75/14/75
f 20/3/20 18/20/18 28/21/28
f 20/3/20 27/22/27 2/23/2
f 27/22/27 35/24/35 11/25/11
f 18/5/18 33/26/33 28/27/28
f 20/3/20 28/21/28 27/22/27
f 28/27/28 33/26/33 3/28/3
f 33/26/33 6/29/6 36/30/36
f 13/31/13 96/32/96 39/33/39
f 6/29/6 30/34/30 41/35/41
f 25/36/25 38/37/38 27/22/27
f 28/21/28 3/38/3 25/36/25
f 140/39/140 51/40/51 54/41/54
f 59/42/59 58/43/58 37/44/37
f 56/45/56 22/46/22 37/44/37
f 13/31/13 44/47/44 90/48/90
f 45/49/45 21/50/21 80/51/80
f 44/52/44 80/51/80 90/53/90
f 70/54/70 66/55/66 56/45/56
f 33/26/33 36/30/36 3/28/3
f 47/56/47 48/57/48 3/28/3
f 39/58/39 40/59/40 47/60/47
f 43/61/43 25/36/25 3/38/3
f 24/62/24 53/63/53 140/39/140
f 51/64/51 50/65/50 54/66/54
f 135/67/135 133/68/133 50/65/50
f 48/69/48 40/59/40 8/70/8
f 60/71/60 7/72/7 5/73/5
f 7/72/7 65/74/65 5/73/5
f 58/43/58 60/71/60 37/44/37
f 64/75/64 29/76/29 22/46/22
f 58/43/58 59/42/59 57/77/57
f 70/54/70 56/45/56 60/71/60
f 59/42/59 37/44/37 69/78/69
f 72/79/72 67/80/67 57/77/57
f 46/81/46 32/82/32 66/55/66
f 58/43/58 67/80/67 7/72/7
f 116/83/116 15/84/15 67/85/67
f 60/71/60 5/73/5 70/54/70
f 69/78/69 22/46/22 29/76/29
f 22/46/22 68/86/68 64/75/64
f 66/55/66 68/86/68 22/46/22
f 73/19/73 75/14/75 64/87/64
f 62/88/62 61/89/61 128/90/128
f 74/91/74 62/88/62 128/90/128
f 29/92/29 79/93/79 69/94/69
f 26/15/26 64/75/64 68/86/68
f 66/55/66 32/82/32 68/86/68
f 76/95/76 78/96/78 52/97/52
f 52/97/52 75/14/75 76/95/76
f 19/1/19 52/97/52 78/96/78
f 75/14/75 52/97/52 29/92/29
f 68/86/68 32/82/32 26/15/26
f 26/15/26 1/11/1 73/98/73
f 2/23/2 74/91/74 52/97/52
f 80/51/80 46/81/46 45/49/45
f 42/99/42 14/100/14 81/101/81
f 86/102/86 81/101/81 14/100/14
f 14/103/14 85/104/85 112/105/112
f 82/106/82 42/99/42 81/101/81
f 85/104/85 14/103/14 83/107/83
f 87/108/87 84/109/84 12/110/12
f 99/111/99 90/48/90 114/112/114
f 85/104/85 16/113/16 112/105/112
f 14/103/14 115/114/115 89/115/89
f 86/102/86 14/100/14 89/116/89
f 42/117/42 134/118/134 103/119/103
f 105/120/105 83/7/83 97/121/97
f 81/101/81 86/122/86 82/106/82
f 90/48/90 99/111/99 13/31/13
f 95/123/95 101/124/101 94/125/94
f 102/126/102 87/108/87 105/120/105
f 88/127/88 42/99/42 82/106/82
f 112/105/112 115/114/115 14/103/14
f 88/128/88 82/106/82 86/122/86
f 94/125/94 112/105/112 16/113/16
f 95/123/95 109/129/109 101/124/101
f 95/123/95 21/130/21 65/131/65
f 16/113/16 93/132/93 98/133/98
f 103/119/103 97/121/97 42/117/42
f 92/134/92 91/135/91 88/136/88
f 91/135/91 134/118/134 88/136/88
f 105/120/105 108/137/108 102/126/102
f 40/59/40 39/58/39 102/126/102
f 108/137/108 136/138/136 102/126/102
f 102/126/102 136/138/136 8/70/8
f 97/121/97 103/119/103 106/139/106
f 40/59/40 102/126/102 8/70/8
f 67/80/67 15/140/15 7/72/7
f 95/123/95 65/131/65 7/141/7
f 101/124/101 111/142/111 113/143/113
f 101/124/101 113/143/113 115/114/115
f 113/143/113 89/115/89 115/114/115
f 94/125/94 98/133/98 21/130/21
f 67/80/67 71/144/71 116/145/116
f 116/83/116 71/146/71 110/147/110
f 121/148/121 111/142/111 116/83/116
f 71/149/71 72/150/72 127/151/127
f 110/152/110 117/153/117 121/154/121
f 122/155/122 126/156/126 131/157/131
f 9/158/9 119/159/119 104/160/104
f 119/159/119 120/161/120 117/153/117
f 121/154/121 120/161/120 92/134/92
f 100/162/100 92/134/92 88/136/88
f 9/158/9 120/161/120 119/159/119
f 123/163/123 126/156/126 122/155/122
f 92/134/92 113/164/113 121/154/121
f 91/135/91 92/134/92 120/161/120
f 113/143/113 100/165/100 89/115/89
f 125/166/125 127/151/127 72/150/72
f 130/17/130 61/89/61 138/18/138
f 130/17/130 129/167/129 128/90/128
f 127/151/127 126/156/126 123/163/123
f 129/167/129 125/166/125 128/90/128
f 79/93/79 29/92/29 74/91/74
f 74/91/74 29/92/29 52/97/52
f 128/90/128 61/89/61 130/17/130
f 107/168/107 104/160/104 10/169/10
f 55/170/55 50/65/50 107/168/107
f 133/68/133 135/67/135 106/139/106
f 104/160/104 91/135/91 9/158/9
f 10/169/10 122/171/122 55/170/55
f 107/168/107 50/65/50 133/68/133
f 91/135/91 104/160/104 107/168/107
f 108/137/108 106/139/106 136/138/136
f 132/172/132 133/68/133 106/139/106
f 134/118/134 42/117/42 88/136/88
f 108/137/108 97/121/97 106/139/106
f 139/173/139 24/62/24 124/16/124
f 138/18/138 139/173/139 124/16/124
f 122/155/122 131/157/131 140/39/140
f 131/157/131 118/174/118 140/39/140
f 55/175/55 122/155/122 140/39/140
f 2/23/2 11/25/11 138/18/138
f 50/65/50 55/170/55 54/66/54
f 35/24/35 27/22/27 38/37/38
f 141/176/141 62/88/62 74/91/74
f 51/40/51 49/177/49 137/178/137
f 43/61/43 49/177/49 38/37/38
f 132/172/132 107/168/107 133/68/133
f 1/12/1 4/179/4 17/13/17
f 20/3/20 2/23/2 19/1/19
f 36/30/36 13/180/13 39/181/39
f 49/182/49 8/70/8 136/138/136
f 17/13/17 4/2/4 19/1/19
f 116/83/116 110/147/110 121/148/121
f 75/14/75 17/13/17 19/1/19
f 19/1/19 2/23/2 52/97/52
f 34/183/34 31/10/31 23/4/23
f 74/91/74 2/23/2 138/18/138
f 4/6/4 18/5/18 20/184/20
f 31/10/31 34/183/34 30/34/30
f 26/15/26 32/82/32 23/4/23
f 25/36/25 27/22/27 28/21/28
f 31/10/31 33/26/33 18/5/18
f 33/26/33 31/10/31 6/29/6
f 3/28/3 36/30/36 47/56/47
f 31/10/31 30/34/30 6/29/6
f 13/180/13 36/30/36 41/35/41
f 2/23/2 27/22/27 11/25/11
f 36/30/36 6/29/6 41/35/41
f 41/35/41 44/52/44 13/180/13
f 39/181/39 47/56/47 36/30/36
f 41/35/41 30/34/30 44/52/44
f 48/69/48 49/182/49 43/185/43
f 30/34/30 46/81/46 80/51/80
f 5/73/5 45/49/45 46/81/46
f 44/52/44 30/34/30 80/51/80
f 51/40/51 140/39/140 53/63/53
f 3/38/3 48/186/48 43/61/43
f 8/70/8 49/182/49 48/69/48
f 136/138/136 137/187/137 49/182/49
f 38/37/38 25/36/25 43/61/43
f 48/69/48 47/60/47 40/59/40
f 70/54/70 46/81/46 66/55/66
f 5/73/5 46/81/46 70/54/70
f 60/71/60 58/43/58 7/72/7
f 72/79/72 71/144/71 67/80/67
f 37/44/37 60/71/60 56/45/56
f 34/183/34 23/4/23 32/82/32
f 79/93/79 74/91/74 128/90/128
f 29/92/29 64/87/64 75/14/75
f 59/188/59 125/166/125 57/189/57
f 64/75/64 26/15/26 73/98/73
f 76/95/76 77/190/77 78/96/78
f 76/95/76 19/1/19 78/96/78
f 19/1/19 76/95/76 75/14/75
f 74/91/74 138/18/138 61/89/61
f 32/82/32 46/81/46 34/183/34
f 30/34/30 34/183/34 46/81/46
f 87/108/87 102/126/102 39/58/39
f 105/120/105 87/108/87 12/110/12
f 83/7/83 14/191/14 42/117/42
f 85/104/85 84/192/84 16/113/16
f 96/32/96 13/31/13 99/111/99
f 87/193/87 99/111/99 84/192/84
f 99/111/99 87/193/87 96/32/96
f 12/110/12 83/7/83 105/120/105
f 12/110/12 84/8/84 83/7/83
f 86/122/86 89/194/89 88/128/88
f 93/132/93 84/192/84 99/111/99
f 98/133/98 94/125/94 16/113/16
f 93/132/93 16/113/16 84/192/84
f 45/195/45 65/131/65 21/130/21
f 93/132/93 99/111/99 114/112/114
f 98/133/98 93/132/93 114/112/114
f 89/196/89 100/162/100 88/136/88
f 97/121/97 83/7/83 42/117/42
f 96/32/96 87/193/87 39/33/39
f 90/48/90 80/197/80 114/112/114
f 37/44/37 22/46/22 69/78/69
f 108/137/108 105/120/105 97/121/97
f 106/139/106 103/119/103 132/172/132
f 106/139/106 135/67/135 137/187/137
f 95/123/95 7/141/7 15/84/15
f 109/129/109 15/84/15 116/83/116
f 119/159/119 10/169/10 104/160/104
f 5/73/5 65/74/65 45/49/45
f 95/123/95 94/125/94 21/130/21
f 101/124/101 109/129/109 111/142/111
f 116/83/116 111/142/111 109/129/109
f 121/148/121 113/143/113 111/142/111
f 98/133/98 114/112/114 21/130/21
f 101/124/101 112/105/112 94/125/94
f 80/197/80 21/130/21 114/112/114
f 101/124/101 115/114/115 112/105/112
f 119/159/119 117/153/117 123/198/123
f 110/147/110 71/199/71 117/200/117
f 122/171/122 119/159/119 123/198/123
f 121/154/121 117/153/117 120/161/120
f 118/174/118 126/156/126 130/17/130
f 127/151/127 123/163/123 117/201/117
f 91/135/91 120/161/120 9/158/9
f 92/134/92 100/162/100 113/202/113
f 119/159/119 122/171/122 10/169/10
f 57/77/57 67/80/67 58/43/58
f 71/149/71 127/151/127 117/201/117
f 72/150/72 57/203/57 125/166/125
f 126/156/126 118/174/118 131/157/131
f 126/156/126 129/167/129 130/17/130
f 127/151/127 125/166/125 129/167/129
f 59/188/59 128/90/128 125/166/125
f 59/188/59 79/93/79 128/90/128
f 129/167/129 126/156/126 127/151/127
f 79/93/79 59/188/59 69/94/69
f 118/174/118 130/17/130 124/16/124
f 10/169/10 55/170/55 107/168/107
f 91/135/91 107/168/107 132/172/132
f 91/135/91 132/172/132 134/118/134
f 103/119/103 134/118/134 132/172/132
f 137/187/137 136/138/136 106/139/106
f 51/64/51 137/187/137 135/67/135
f 51/64/51 135/67/135 50/65/50
f 11/25/11 35/24/35 139/173/139
f 140/39/140 118/174/118 24/62/24
f 24/62/24 118/174/118 124/16/124
f 54/41/54 55/175/55 140/39/140
f 138/18/138 11/25/11 139/173/139
f 139/173/139 53/63/53 24/62/24
f 35/24/35 53/63/53 139/173/139
f 35/24/35 51/40/51 53/63/53
f 35/24/35 38/37/38 51/40/51
f 61/89/61 141/176/141 74/91/74
f 61/89/61 63/204/63 141/176/141
f 49/177/49 51/40/51 38/37/38
f 66/55/66 22/46/22 56/45/56
f 15/84/15 109/129/109 95/123/95
l 62 63
