# 3ds Max Wavefront OBJ Exporter v0.99 - (c)2007 guruware
# File Created: 15.06.2024 18:16:46

mtllib tree.mtl

#
# object Cylinder001
#

v  2.8999 0.0000 0.4589
v  2.7197 0.0000 0.7710
v  2.4436 0.0000 1.0027
v  2.1050 0.0000 1.1260
v  1.7446 0.0000 1.1260
v  1.4059 0.0000 1.0027
v  1.1298 0.0000 0.7710
v  0.9496 0.0000 0.4589
v  0.8871 0.0000 0.1040
v  0.9496 0.0000 -0.2509
v  1.1298 0.0000 -0.5630
v  1.4059 0.0000 -0.7947
v  1.7446 0.0000 -0.9179
v  2.1050 0.0000 -0.9179
v  2.4436 0.0000 -0.7947
v  2.7197 0.0000 -0.5630
v  2.8999 0.0000 -0.2509
v  2.9625 0.0000 0.1040
v  2.7784 0.3544 -0.2509
v  2.8331 0.3544 0.1040
v  2.6206 0.3544 -0.5630
v  2.3790 0.3544 -0.7947
v  2.0825 0.3544 -0.9179
v  1.7670 0.3544 -0.9179
v  1.4706 0.3544 -0.7947
v  1.2289 0.3544 -0.5630
v  1.0712 0.3544 -0.2509
v  1.0164 0.3544 0.1040
v  1.0712 0.3544 0.4589
v  1.2289 0.3544 0.7710
v  1.4706 0.3544 1.0027
v  1.7670 0.3544 1.1260
v  2.0825 0.3544 1.1260
v  2.3790 0.3544 1.0027
v  2.6206 0.3544 0.7710
v  2.7784 0.3544 0.4589
v  2.7099 0.5148 -0.2224
v  2.7603 0.5148 0.1040
v  2.5648 0.5148 -0.5095
v  2.3425 0.5148 -0.7226
v  2.0699 0.5148 -0.8360
v  1.7797 0.5148 -0.8360
v  1.5070 0.5148 -0.7226
v  1.2847 0.5148 -0.5095
v  1.1397 0.5148 -0.2224
v  1.0893 0.5148 0.1040
v  1.1397 0.5148 0.4305
v  1.2847 0.5148 0.7175
v  1.5070 0.5148 0.9306
v  1.7797 0.5148 1.0440
v  2.0699 0.5148 1.0440
v  2.3425 0.5148 0.9306
v  2.5648 0.5148 0.7175
v  2.7099 0.5148 0.4305
v  2.6215 0.8129 -0.1857
v  2.6662 0.8129 0.1040
v  2.4928 0.8129 -0.4404
v  2.2955 0.8129 -0.6295
v  2.0535 0.8129 -0.7301
v  1.7960 0.8129 -0.7301
v  1.5541 0.8129 -0.6295
v  1.3568 0.8129 -0.4404
v  1.2281 0.8129 -0.1857
v  1.1833 0.8129 0.1040
v  1.2281 0.8129 0.3937
v  1.3568 0.8129 0.6485
v  1.5541 0.8129 0.8375
v  1.7960 0.8129 0.9382
v  2.0535 0.8129 0.9382
v  2.2955 0.8129 0.8375
v  2.4928 0.8129 0.6485
v  2.6215 0.8129 0.3937
v  2.5703 1.1109 -0.1644
v  2.6117 1.1109 0.1040
v  2.4510 1.1109 -0.4004
v  2.2682 1.1109 -0.5756
v  2.0441 1.1109 -0.6688
v  1.8055 1.1109 -0.6688
v  1.5813 1.1109 -0.5756
v  1.3986 1.1109 -0.4004
v  1.2793 1.1109 -0.1644
v  1.2379 1.1109 0.1040
v  1.2793 1.1109 0.3724
v  1.3986 1.1109 0.6084
v  1.5813 1.1109 0.7836
v  1.8055 1.1109 0.8768
v  2.0441 1.1109 0.8768
v  2.2682 1.1109 0.7836
v  2.4510 1.1109 0.6084
v  2.5703 1.1109 0.3724
v  2.5476 1.4090 -0.1549
v  2.5875 1.4090 0.1040
v  2.4325 1.4090 -0.3827
v  2.2562 1.4090 -0.5517
v  2.0399 1.4090 -0.6416
v  1.8097 1.4090 -0.6416
v  1.5934 1.4090 -0.5517
v  1.4171 1.4090 -0.3827
v  1.3020 1.4090 -0.1549
v  1.2620 1.4090 0.1040
v  1.3020 1.4090 0.3630
v  1.4171 1.4090 0.5907
v  1.5934 1.4090 0.7597
v  1.8097 1.4090 0.8496
v  2.0399 1.4090 0.8496
v  2.2562 1.4090 0.7597
v  2.4325 1.4090 0.5907
v  2.5476 1.4090 0.3630
# 108 vertices

vn 0.7886 -0.5491 0.2766
vn 0.6290 -0.5884 0.5081
vn 0.3976 -0.6350 0.6624
vn 0.1346 -0.6658 0.7339
vn -0.1346 -0.6658 0.7339
vn -0.3976 -0.6350 0.6624
vn -0.6290 -0.5884 0.5081
vn -0.7886 -0.5491 0.2766
vn -0.8453 -0.5342 -0.0000
vn -0.7886 -0.5491 -0.2766
vn -0.6290 -0.5884 -0.5081
vn -0.3976 -0.6350 -0.6624
vn -0.1346 -0.6658 -0.7339
vn 0.1346 -0.6658 -0.7339
vn 0.3976 -0.6350 -0.6624
vn 0.6290 -0.5884 -0.5081
vn 0.7886 -0.5491 -0.2766
vn 0.8453 -0.5342 -0.0000
vn 0.8853 0.3627 -0.2910
vn 0.9261 0.3773 0.0000
vn 0.7539 0.3225 -0.5724
vn 0.5169 0.2714 -0.8119
vn 0.1852 0.2355 -0.9541
vn -0.1852 0.2355 -0.9541
vn -0.5169 0.2714 -0.8119
vn -0.7539 0.3225 -0.5724
vn -0.8853 0.3627 -0.2910
vn -0.9261 0.3773 0.0000
vn -0.8853 0.3627 0.2910
vn -0.7539 0.3225 0.5724
vn -0.5169 0.2714 0.8119
vn -0.1852 0.2355 0.9541
vn 0.1852 0.2355 0.9541
vn 0.5169 0.2714 0.8119
vn 0.7539 0.3225 0.5724
vn 0.8853 0.3627 0.2910
vn 0.8869 0.3644 -0.2840
vn 0.9330 0.3599 -0.0000
vn 0.7453 0.3763 -0.5504
vn 0.5046 0.3915 -0.7695
vn 0.1797 0.4023 -0.8977
vn -0.1797 0.4023 -0.8977
vn -0.5046 0.3915 -0.7695
vn -0.7453 0.3763 -0.5504
vn -0.8869 0.3644 -0.2840
vn -0.9330 0.3599 -0.0000
vn -0.8869 0.3644 0.2840
vn -0.7453 0.3763 0.5504
vn -0.5046 0.3915 0.7695
vn -0.1797 0.4023 0.8977
vn 0.1797 0.4023 0.8977
vn 0.5046 0.3915 0.7695
vn 0.7453 0.3763 0.5504
vn 0.8869 0.3644 0.2840
vn 0.9232 0.2456 -0.2957
vn 0.9702 0.2423 0.0000
vn 0.7779 0.2544 -0.5746
vn 0.5285 0.2656 -0.8063
vn 0.1887 0.2737 -0.9431
vn -0.1887 0.2737 -0.9431
vn -0.5285 0.2656 -0.8063
vn -0.7779 0.2544 -0.5746
vn -0.9232 0.2456 -0.2957
vn -0.9702 0.2423 -0.0000
vn -0.9232 0.2456 0.2957
vn -0.7779 0.2544 0.5746
vn -0.5285 0.2656 0.8063
vn -0.1887 0.2737 0.9431
vn 0.1887 0.2737 0.9431
vn 0.5285 0.2656 0.8063
vn 0.7779 0.2544 0.5746
vn 0.9232 0.2456 0.2957
vn 0.9438 0.1330 -0.3024
vn 0.9914 0.1312 0.0000
vn 0.7965 0.1380 -0.5887
vn 0.5422 0.1444 -0.8277
vn 0.1939 0.1490 -0.9696
vn -0.1939 0.1490 -0.9696
vn -0.5422 0.1444 -0.8277
vn -0.7965 0.1380 -0.5887
vn -0.9438 0.1330 -0.3024
vn -0.9914 0.1312 -0.0000
vn -0.9438 0.1330 0.3024
vn -0.7965 0.1380 0.5887
vn -0.5422 0.1444 0.8277
vn -0.1939 0.1490 0.9696
vn 0.1939 0.1490 0.9696
vn 0.5422 0.1444 0.8277
vn 0.7965 0.1380 0.5887
vn 0.9438 0.1330 0.3024
vn 0.6772 0.7031 -0.2168
vn 0.7106 0.7035 0.0000
vn 0.5730 0.7019 -0.4231
vn 0.3914 0.7003 -0.5970
vn 0.1403 0.6990 -0.7012
vn -0.1403 0.6990 -0.7012
vn -0.3914 0.7003 -0.5970
vn -0.5730 0.7019 -0.4231
vn -0.6772 0.7031 -0.2168
vn -0.7106 0.7035 -0.0000
vn -0.6772 0.7031 0.2168
vn -0.5730 0.7019 0.4231
vn -0.3914 0.7003 0.5970
vn -0.1403 0.6990 0.7012
vn 0.1403 0.6990 0.7012
vn 0.3914 0.7003 0.5970
vn 0.5730 0.7019 0.4231
vn 0.6772 0.7031 0.2168
# 108 vertex normals

vt 0.9712 0.8394 0.0000
vt 0.9405 0.8926 0.0000
vt 0.8934 0.9320 0.0000
vt 0.8357 0.9530 0.0000
vt 0.7743 0.9530 0.0000
vt 0.7166 0.9320 0.0000
vt 0.6696 0.8926 0.0000
vt 0.6389 0.8394 0.0000
vt 0.6282 0.7789 0.0000
vt 0.6389 0.7184 0.0000
vt 0.6696 0.6652 0.0000
vt 0.7166 0.6258 0.0000
vt 0.7743 0.6048 0.0000
vt 0.8357 0.6048 0.0000
vt 0.8934 0.6258 0.0000
vt 0.9405 0.6652 0.0000
vt 0.9712 0.7184 0.0000
vt 0.9819 0.7789 0.0000
vt 0.8995 0.0864 0.0000
vt 0.9513 0.1179 0.0000
vt 0.9209 0.1740 0.0000
vt 0.8687 0.1431 0.0000
vt 1.0000 0.1549 0.0000
vt 0.9688 0.2091 0.0000
vt 0.0000 0.2149 0.0000
vt 0.0468 0.1747 0.0000
vt 0.0917 0.2166 0.0000
vt 0.0501 0.2540 0.0000
vt 0.0964 0.1378 0.0000
vt 0.1335 0.1853 0.0000
vt 0.1487 0.1048 0.0000
vt 0.1763 0.1582 0.0000
vt 0.2028 0.0762 0.0000
vt 0.2220 0.1340 0.0000
vt 0.2577 0.0516 0.0000
vt 0.2721 0.1124 0.0000
vt 0.3136 0.0311 0.0000
vt 0.3269 0.0938 0.0000
vt 0.3708 0.0156 0.0000
vt 0.3849 0.0787 0.0000
vt 0.4294 0.0055 0.0000
vt 0.4437 0.0681 0.0000
vt 0.4889 0.0005 0.0000
vt 0.5012 0.0622 0.0000
vt 0.5490 -0.0000 0.0000
vt 0.5557 0.0610 0.0000
vt 0.6098 0.0036 0.0000
vt 0.6072 0.0638 0.0000
vt 0.6705 0.0116 0.0000
vt 0.6572 0.0703 0.0000
vt 0.7303 0.0241 0.0000
vt 0.7077 0.0808 0.0000
vt 0.7885 0.0404 0.0000
vt 0.7602 0.0962 0.0000
vt 0.8450 0.0608 0.0000
vt 0.8144 0.1170 0.0000
vt 0.9031 0.1983 0.0000
vt 0.8542 0.1697 0.0000
vt 0.9477 0.2306 0.0000
vt 0.1107 0.2404 0.0000
vt 0.0721 0.2755 0.0000
vt 0.1507 0.2103 0.0000
vt 0.1923 0.1842 0.0000
vt 0.2366 0.1610 0.0000
vt 0.2847 0.1403 0.0000
vt 0.3366 0.1226 0.0000
vt 0.3914 0.1084 0.0000
vt 0.4470 0.0983 0.0000
vt 0.5016 0.0927 0.0000
vt 0.5539 0.0914 0.0000
vt 0.6039 0.0941 0.0000
vt 0.6526 0.1004 0.0000
vt 0.7015 0.1108 0.0000
vt 0.7517 0.1256 0.0000
vt 0.8030 0.1453 0.0000
vt 0.8725 0.2422 0.0000
vt 0.8284 0.2170 0.0000
vt 0.9129 0.2698 0.0000
vt 0.1449 0.2817 0.0000
vt 0.1097 0.3128 0.0000
vt 0.1816 0.2545 0.0000
vt 0.2201 0.2304 0.0000
vt 0.2612 0.2090 0.0000
vt 0.3055 0.1901 0.0000
vt 0.3531 0.1739 0.0000
vt 0.4030 0.1610 0.0000
vt 0.4537 0.1517 0.0000
vt 0.5038 0.1465 0.0000
vt 0.5521 0.1452 0.0000
vt 0.5985 0.1476 0.0000
vt 0.6438 0.1535 0.0000
vt 0.6893 0.1633 0.0000
vt 0.7354 0.1771 0.0000
vt 0.7822 0.1950 0.0000
vt 0.8451 0.2859 0.0000
vt 0.8044 0.2631 0.0000
vt 0.8831 0.3102 0.0000
vt 0.1767 0.3226 0.0000
vt 0.1431 0.3504 0.0000
vt 0.2107 0.2977 0.0000
vt 0.2462 0.2755 0.0000
vt 0.2840 0.2558 0.0000
vt 0.3247 0.2384 0.0000
vt 0.3684 0.2236 0.0000
vt 0.4141 0.2117 0.0000
vt 0.4606 0.2032 0.0000
vt 0.5065 0.1983 0.0000
vt 0.5508 0.1970 0.0000
vt 0.5935 0.1992 0.0000
vt 0.6352 0.2047 0.0000
vt 0.6768 0.2137 0.0000
vt 0.7192 0.2265 0.0000
vt 0.7620 0.2430 0.0000
vt 0.8197 0.3299 0.0000
vt 0.7816 0.3087 0.0000
vt 0.8562 0.3526 0.0000
vt 0.2068 0.3639 0.0000
vt 0.1744 0.3899 0.0000
vt 0.2386 0.3406 0.0000
vt 0.2713 0.3201 0.0000
vt 0.3059 0.3020 0.0000
vt 0.3432 0.2860 0.0000
vt 0.3832 0.2724 0.0000
vt 0.4251 0.2615 0.0000
vt 0.4676 0.2537 0.0000
vt 0.5095 0.2492 0.0000
vt 0.5499 0.2480 0.0000
vt 0.5887 0.2499 0.0000
vt 0.6266 0.2549 0.0000
vt 0.6645 0.2632 0.0000
vt 0.7032 0.2749 0.0000
vt 0.7425 0.2901 0.0000
vt 0.2446 0.8203 0.0000
vt 0.2477 0.8648 0.0000
vt 0.2373 0.9082 0.0000
vt 0.2146 0.9453 0.0000
vt 0.1823 0.9716 0.0000
vt 0.1443 0.9838 0.0000
vt 0.1053 0.9806 0.0000
vt 0.0698 0.9623 0.0000
vt 0.0422 0.9312 0.0000
vt 0.0258 0.8909 0.0000
vt 0.0226 0.8464 0.0000
vt 0.0330 0.8029 0.0000
vt 0.0557 0.7659 0.0000
vt 0.0880 0.7396 0.0000
vt 0.1260 0.7273 0.0000
vt 0.1651 0.7305 0.0000
vt 0.2006 0.7488 0.0000
vt 0.2282 0.7800 0.0000
# 150 texture coords

o Cylinder001
g Cylinder001
usemtl wire_177028149
s 1
f 1/1/1 2/2/2 3/3/3 4/4/4 5/5/5 6/6/6 7/7/7 8/8/8 9/9/9 10/10/10 11/11/11 12/12/12 13/13/13 14/14/14 15/15/15 16/16/16 17/17/17 18/18/18 
s 8
f 18/19/18 17/20/17 19/21/19 20/22/20 
f 17/20/17 16/23/16 21/24/21 19/21/19 
f 16/25/16 15/26/15 22/27/22 21/28/21 
f 15/26/15 14/29/14 23/30/23 22/27/22 
f 14/29/14 13/31/13 24/32/24 23/30/23 
f 13/31/13 12/33/12 25/34/25 24/32/24 
f 12/33/12 11/35/11 26/36/26 25/34/25 
f 11/35/11 10/37/10 27/38/27 26/36/26 
f 10/37/10 9/39/9 28/40/28 27/38/27 
f 9/39/9 8/41/8 29/42/29 28/40/28 
f 8/41/8 7/43/7 30/44/30 29/42/29 
f 7/43/7 6/45/6 31/46/31 30/44/30 
f 6/45/6 5/47/5 32/48/32 31/46/31 
f 5/47/5 4/49/4 33/50/33 32/48/32 
f 4/49/4 3/51/3 34/52/34 33/50/33 
f 3/51/3 2/53/2 35/54/35 34/52/34 
f 2/53/2 1/55/1 36/56/36 35/54/35 
f 1/55/1 18/19/18 20/22/20 36/56/36 
f 20/22/20 19/21/19 37/57/37 38/58/38 
f 19/21/19 21/24/21 39/59/39 37/57/37 
f 21/28/21 22/27/22 40/60/40 39/61/39 
f 22/27/22 23/30/23 41/62/41 40/60/40 
f 23/30/23 24/32/24 42/63/42 41/62/41 
f 24/32/24 25/34/25 43/64/43 42/63/42 
f 25/34/25 26/36/26 44/65/44 43/64/43 
f 26/36/26 27/38/27 45/66/45 44/65/44 
f 27/38/27 28/40/28 46/67/46 45/66/45 
f 28/40/28 29/42/29 47/68/47 46/67/46 
f 29/42/29 30/44/30 48/69/48 47/68/47 
f 30/44/30 31/46/31 49/70/49 48/69/48 
f 31/46/31 32/48/32 50/71/50 49/70/49 
f 32/48/32 33/50/33 51/72/51 50/71/50 
f 33/50/33 34/52/34 52/73/52 51/72/51 
f 34/52/34 35/54/35 53/74/53 52/73/52 
f 35/54/35 36/56/36 54/75/54 53/74/53 
f 36/56/36 20/22/20 38/58/38 54/75/54 
f 38/58/38 37/57/37 55/76/55 56/77/56 
f 37/57/37 39/59/39 57/78/57 55/76/55 
f 39/61/39 40/60/40 58/79/58 57/80/57 
f 40/60/40 41/62/41 59/81/59 58/79/58 
f 41/62/41 42/63/42 60/82/60 59/81/59 
f 42/63/42 43/64/43 61/83/61 60/82/60 
f 43/64/43 44/65/44 62/84/62 61/83/61 
f 44/65/44 45/66/45 63/85/63 62/84/62 
f 45/66/45 46/67/46 64/86/64 63/85/63 
f 46/67/46 47/68/47 65/87/65 64/86/64 
f 47/68/47 48/69/48 66/88/66 65/87/65 
f 48/69/48 49/70/49 67/89/67 66/88/66 
f 49/70/49 50/71/50 68/90/68 67/89/67 
f 50/71/50 51/72/51 69/91/69 68/90/68 
f 51/72/51 52/73/52 70/92/70 69/91/69 
f 52/73/52 53/74/53 71/93/71 70/92/70 
f 53/74/53 54/75/54 72/94/72 71/93/71 
f 54/75/54 38/58/38 56/77/56 72/94/72 
f 56/77/56 55/76/55 73/95/73 74/96/74 
f 55/76/55 57/78/57 75/97/75 73/95/73 
f 57/80/57 58/79/58 76/98/76 75/99/75 
f 58/79/58 59/81/59 77/100/77 76/98/76 
f 59/81/59 60/82/60 78/101/78 77/100/77 
f 60/82/60 61/83/61 79/102/79 78/101/78 
f 61/83/61 62/84/62 80/103/80 79/102/79 
f 62/84/62 63/85/63 81/104/81 80/103/80 
f 63/85/63 64/86/64 82/105/82 81/104/81 
f 64/86/64 65/87/65 83/106/83 82/105/82 
f 65/87/65 66/88/66 84/107/84 83/106/83 
f 66/88/66 67/89/67 85/108/85 84/107/84 
f 67/89/67 68/90/68 86/109/86 85/108/85 
f 68/90/68 69/91/69 87/110/87 86/109/86 
f 69/91/69 70/92/70 88/111/88 87/110/87 
f 70/92/70 71/93/71 89/112/89 88/111/88 
f 71/93/71 72/94/72 90/113/90 89/112/89 
f 72/94/72 56/77/56 74/96/74 90/113/90 
f 74/96/74 73/95/73 91/114/91 92/115/92 
f 73/95/73 75/97/75 93/116/93 91/114/91 
f 75/99/75 76/98/76 94/117/94 93/118/93 
f 76/98/76 77/100/77 95/119/95 94/117/94 
f 77/100/77 78/101/78 96/120/96 95/119/95 
f 78/101/78 79/102/79 97/121/97 96/120/96 
f 79/102/79 80/103/80 98/122/98 97/121/97 
f 80/103/80 81/104/81 99/123/99 98/122/98 
f 81/104/81 82/105/82 100/124/100 99/123/99 
f 82/105/82 83/106/83 101/125/101 100/124/100 
f 83/106/83 84/107/84 102/126/102 101/125/101 
f 84/107/84 85/108/85 103/127/103 102/126/102 
f 85/108/85 86/109/86 104/128/104 103/127/103 
f 86/109/86 87/110/87 105/129/105 104/128/104 
f 87/110/87 88/111/88 106/130/106 105/129/105 
f 88/111/88 89/112/89 107/131/107 106/130/106 
f 89/112/89 90/113/90 108/132/108 107/131/107 
f 90/113/90 74/96/74 92/115/92 108/132/108 
s 1
f 108/133/108 92/134/92 91/135/91 93/136/93 94/137/94 95/138/95 96/139/96 97/140/97 98/141/98 99/142/99 100/143/100 101/144/101 102/145/102 103/146/103 104/147/104 105/148/105 106/149/106 107/150/107 
# 92 polygons

