# Blender 4.1.0
# www.blender.org
mtllib mango.mtl
o mango
v -0.080949 0.038533 -0.028094
v -0.067527 0.023983 -0.064951
v -0.033596 0.001082 -0.088699
v -0.069959 0.054006 -0.019484
v -0.041912 0.060034 -0.044967
v 0.001685 0.050902 -0.061379
v -0.065508 0.059892 0.000003
v -0.031572 0.073715 0.000432
v 0.017261 0.072458 0.000744
v -0.070237 0.052712 0.018975
v -0.042563 0.057013 0.044651
v 0.000796 0.046774 0.061042
v -0.081348 0.036707 0.026299
v -0.068448 0.019711 0.061789
v -0.034853 -0.004755 0.084430
v -0.078810 0.041023 0.000401
v -0.092872 0.020972 0.017676
v -0.094532 -0.016614 0.041792
v -0.069892 -0.053996 0.057131
v -0.100144 0.013466 -0.001817
v -0.107219 -0.031668 -0.003670
v -0.084254 -0.072662 -0.004885
v -0.092607 0.022240 -0.020676
v -0.093882 -0.013593 -0.047826
v -0.069003 -0.049869 -0.065289
v 0.013134 -0.026430 -0.091240
v 0.049740 0.025069 -0.063282
v 0.068319 0.049894 0.000354
v 0.048831 0.020849 0.061898
v 0.011848 -0.032398 0.085790
v -0.023931 -0.082753 0.057877
v -0.038375 -0.101863 -0.005537
v -0.023022 -0.078533 -0.067303
v 0.066799 -0.046780 -0.079248
v 0.097369 -0.003449 -0.055208
v 0.108569 0.012801 -0.000604
v 0.096586 -0.007084 0.052614
v 0.065691 -0.051921 0.073235
v 0.034949 -0.094883 0.049207
v 0.022888 -0.109284 -0.005342
v 0.035732 -0.091248 -0.058616
v 0.097311 -0.061539 -0.061734
v 0.120223 -0.028493 -0.043307
v 0.126143 -0.016960 -0.001479
v 0.119622 -0.031280 0.039386
v 0.096462 -0.065482 0.055211
v 0.073576 -0.098374 0.036790
v 0.067787 -0.109137 -0.005011
v 0.074177 -0.095586 -0.045903
v 0.119118 -0.083365 -0.026248
v 0.128254 -0.070414 -0.019074
v 0.131665 -0.065463 -0.002775
v 0.128021 -0.071499 0.013102
v 0.118788 -0.084899 0.019255
v 0.109673 -0.098001 0.012075
v 0.106370 -0.103707 -0.004248
v 0.109907 -0.096916 -0.020100
v 0.122561 -0.087130 -0.002362
v 0.122564 -0.087126 -0.002360
v 0.122566 -0.087124 -0.002354
v 0.122564 -0.087126 -0.002348
v 0.122561 -0.087131 -0.002345
v 0.122557 -0.087136 -0.002348
v 0.122556 -0.087138 -0.002354
v 0.122557 -0.087135 -0.002360
vn -0.7658 0.5726 -0.2928
vn -0.5526 0.4118 -0.7246
vn -0.2099 0.1700 -0.9628
vn -0.6308 0.7482 -0.2055
vn -0.2538 0.8233 -0.5077
vn 0.1298 0.7283 -0.6728
vn -0.5701 0.8212 0.0245
vn -0.1325 0.9907 0.0321
vn 0.2631 0.9641 0.0344
vn -0.6325 0.7334 0.2492
vn -0.2595 0.7875 0.5591
vn 0.1197 0.6813 0.7222
vn -0.7692 0.5514 0.3228
vn -0.5619 0.3612 0.7442
vn -0.2239 0.1048 0.9690
vn -0.8105 0.5855 0.0141
vn -0.8811 0.4066 0.2413
vn -0.8506 -0.0444 0.5240
vn -0.5816 -0.4622 0.6694
vn -0.9405 0.3398 0.0053
vn -0.9789 -0.2040 -0.0142
vn -0.7296 -0.6833 -0.0283
vn -0.8778 0.4239 -0.2229
vn -0.8433 -0.0071 -0.5374
vn -0.5716 -0.4158 -0.7073
vn 0.0737 -0.0377 -0.9966
vn 0.3851 0.5847 -0.7140
vn 0.5345 0.8445 0.0324
vn 0.3744 0.5351 0.7573
vn 0.0593 -0.1047 0.9927
vn -0.2414 -0.7135 0.6577
vn -0.3574 -0.9333 -0.0341
vn -0.2315 -0.6675 -0.7077
vn 0.2917 -0.1430 -0.9458
vn 0.5984 0.4504 -0.6626
vn 0.7350 0.6775 0.0282
vn 0.5885 0.4045 0.7000
vn 0.2780 -0.2065 0.9381
vn 0.0153 -0.7967 0.6042
vn -0.0776 -0.9964 -0.0342
vn 0.0244 -0.7542 -0.6561
vn 0.5215 -0.2961 -0.8002
vn 0.8298 0.1810 -0.5279
vn 0.9320 0.3619 0.0187
vn 0.8212 0.1466 0.5514
vn 0.5078 -0.3480 0.7881
vn 0.1983 -0.8251 0.5290
vn 0.0739 -0.9967 -0.0336
vn 0.2091 -0.7877 -0.5795
vn 0.7197 -0.4928 -0.4890
vn 0.9245 -0.2153 -0.3146
vn 0.9953 -0.0971 0.0039
vn 0.9196 -0.2301 0.3184
vn 0.7075 -0.5219 0.4765
vn 0.4898 -0.8034 0.3385
vn 0.4042 -0.9142 -0.0280
vn 0.5027 -0.7774 -0.3781
vn 0.8082 -0.5526 -0.2036
vn 0.8880 -0.4391 -0.1367
vn 0.9219 -0.3874 -0.0031
vn 0.8868 -0.4422 0.1341
vn 0.8017 -0.5639 0.1983
vn 0.7303 -0.6664 0.1503
vn 0.7160 -0.6980 -0.0125
vn 0.7405 -0.6504 -0.1694
vt 0.610395 0.378552
vt 0.663503 0.294000
vt 0.714080 0.395847
vt 0.672180 0.427968
vt 0.461696 0.358353
vt 0.539047 0.357014
vt 0.529832 0.444970
vt 0.470543 0.448148
vt 0.569823 0.238445
vt 0.390497 0.389911
vt 0.342263 0.297086
vt 0.452346 0.231633
vt 0.651276 0.055104
vt 0.819014 0.759975
vt 0.414088 0.458708
vt 0.680319 0.571684
vt 0.625680 0.632688
vt 0.597983 0.572752
vt 0.657127 0.539459
vt 0.546017 0.587093
vt 0.534040 0.518259
vt 0.586981 0.513570
vt 0.589717 0.450139
vt 0.480232 0.521898
vt 0.490043 0.592992
vt 0.568536 0.661184
vt 0.500866 0.673223
vt 0.681876 0.697213
vt 0.612473 0.757183
vt 0.738984 0.493831
vt 0.652280 0.465877
vt 0.648229 0.503800
vt 0.425050 0.519543
vt 0.385231 0.571467
vt 0.387297 0.519620
vt 0.428386 0.582229
vt 0.793460 0.385925
vt 0.792662 0.582475
vt 0.788529 0.191577
vt 0.721024 0.598222
vt 0.420264 0.657370
vt 0.376805 0.470441
vt 0.510834 0.783975
vt 0.270065 0.535944
vt 0.269808 0.535209
vt 0.311662 0.502142
vt 0.320321 0.529209
vt 0.349313 0.419762
vt 0.291616 0.364058
vt 0.384774 0.758590
vt 0.712656 0.915611
vt 0.444513 0.015023
vt 0.269900 0.536741
vt 0.316805 0.558026
vt 0.220342 0.157483
vt 0.507477 0.984977
vt 0.364170 0.630605
vt 0.302697 0.694114
vt 0.269193 0.534745
vt 0.268425 0.534802
vt 0.253561 0.468015
vt 0.290334 0.479417
vt 0.270123 0.896724
vt 0.159067 0.304486
vt 0.201059 0.489939
vt 0.263467 0.605053
vt 0.188452 0.778917
vt 0.269288 0.537345
vt 0.298928 0.585525
vt 0.267611 0.537008
vt 0.207896 0.596372
vt 0.268396 0.537507
s 1
usemtl 
f 5/1/5 2/2/2 1/3/1 4/4/4
f 27/5/27 6/6/6 9/7/9 28/8/28
f 3/9/3 2/2/2 5/1/5 6/6/6
f 35/10/35 34/11/34 26/12/26 27/5/27
f 26/12/26 3/9/3 6/6/6 27/5/27
f 25/13/25 24/14/24 2/2/2 3/9/3
f 36/15/36 35/10/35 27/5/27 28/8/28
f 17/16/17 18/17/18 14/18/14 13/19/13
f 14/18/14 15/20/15 12/21/12 11/22/11
f 11/22/11 12/21/12 9/7/9 8/23/8
f 28/8/28 9/7/9 12/21/12 29/24/29
f 30/25/30 15/20/15 19/26/19 31/27/31
f 18/17/18 19/26/19 15/20/15 14/18/14
f 21/28/21 22/29/22 19/26/19 18/17/18
f 16/30/16 17/16/17 13/19/13
f 7/31/7 16/30/16 10/32/10
f 37/33/37 36/15/36 28/8/28 29/24/29
f 29/24/29 12/21/12 15/20/15 30/25/30
f 46/34/46 45/35/45 37/33/37 38/36/38
f 38/36/38 37/33/37 29/24/29 30/25/30
f 1/3/1 23/37/23 16/30/16
f 23/38/23 24/39/24 21/28/21 20/40/20
f 20/40/20 21/28/21 18/17/18 17/16/17
f 39/41/39 38/36/38 30/25/30 31/27/31
f 1/3/1 2/2/2 24/39/24 23/38/23
f 44/42/44 36/15/36 37/33/37 45/35/45
f 31/27/31 19/26/19 22/29/22 32/43/32
f 61/44/61 60/45/60 52/46/52 53/47/53
f 43/48/43 42/49/42 34/11/34 35/10/35
f 40/50/40 39/41/39 31/27/31 32/43/32
f 32/43/32 22/29/22 25/51/25 33/52/33
f 1/3/1 16/30/16 4/4/4
f 62/53/62 61/44/61 53/47/53 54/54/54
f 16/30/16 13/19/13 10/32/10
f 41/55/41 40/50/40 32/43/32 33/56/33
f 34/11/34 41/55/41 33/56/33 26/12/26
f 20/40/20 16/30/16 23/37/23
f 16/30/16 20/40/20 17/16/17
f 13/19/13 14/18/14 11/22/11 10/32/10
f 47/57/47 39/41/39 40/50/40 48/58/48
f 24/14/24 25/13/25 22/29/22 21/28/21
f 46/34/46 38/36/38 39/41/39 47/57/47
f 59/59/59 58/60/58 50/61/50 51/62/51
f 16/30/16 7/31/7 4/4/4
f 48/58/48 40/50/40 41/63/41 49/64/49
f 60/45/60 59/59/59 51/62/51 52/46/52
f 42/49/42 49/64/49 41/63/41 34/11/34
f 53/47/53 52/46/52 44/42/44 45/35/45
f 57/65/57 56/66/56 48/58/48 49/67/49
f 54/54/54 53/47/53 45/35/45 46/34/46
f 50/61/50 57/65/57 49/67/49 42/49/42
f 63/68/63 62/53/62 54/54/54 55/69/55
f 51/62/51 50/61/50 42/49/42 43/48/43
f 55/69/55 54/54/54 46/34/46 47/57/47
f 58/60/58 65/70/65 57/71/57 50/61/50
f 52/46/52 51/62/51 43/48/43 44/42/44
f 56/66/56 55/69/55 47/57/47 48/58/48
f 64/72/64 63/68/63 55/69/55 56/66/56
f 33/52/33 25/51/25 3/9/3 26/12/26
f 65/70/65 64/72/64 56/66/56 57/71/57
f 43/48/43 35/10/35 36/15/36 44/42/44
f 7/31/7 8/23/8 5/1/5 4/4/4
f 8/23/8 9/7/9 6/6/6 5/1/5
f 10/32/10 11/22/11 8/23/8 7/31/7
o leaf
v -0.021056 0.062400 0.050415
v -0.077632 0.068455 0.005798
v -0.083817 0.059535 0.005957
v 0.001263 0.092982 0.015735
v -0.038491 0.093866 -0.001969
v -0.077556 0.066618 0.008954
v -0.076645 0.067756 0.008192
v -0.076462 0.068293 0.007503
v -0.076933 0.068448 0.006609
v -0.067646 0.063472 0.028780
v -0.076862 0.066724 0.012654
v -0.060451 0.085789 -0.001494
v -0.077847 0.067451 0.006282
v -0.083694 0.059659 0.006088
v -0.081165 0.062728 0.007484
v -0.080293 0.063739 0.008077
v -0.079434 0.064688 0.008779
v 0.046550 0.067261 0.041611
v 0.046675 0.066996 0.041904
v 0.046401 0.066853 0.042162
v -0.086121 0.048434 0.001978
v -0.086016 0.048464 0.001816
v -0.085974 0.048586 0.001659
v -0.085525 0.052730 0.004483
v -0.078229 0.065120 0.007555
v -0.084418 0.057852 0.005677
v -0.086231 0.048440 0.002025
v -0.086078 0.053944 0.004248
v -0.085522 0.052652 0.003331
v -0.086132 0.048539 0.002173
v -0.086095 0.048794 0.002393
v -0.079739 0.065365 0.005994
v -0.081722 0.062535 0.005968
v -0.083206 0.060435 0.005897
v -0.086779 0.049210 0.001979
v -0.086290 0.048853 0.001521
v -0.086490 0.048864 0.001609
v -0.075434 0.067364 0.012201
v -0.079276 0.064675 0.008337
v -0.079833 0.063470 0.007500
v -0.079013 0.064542 0.007746
v -0.078886 0.064220 0.007448
v -0.081226 0.060687 0.006770
v -0.080376 0.061901 0.007007
v -0.081107 0.060618 0.006724
v -0.076834 0.067616 0.008023
v -0.076665 0.067933 0.007726
v -0.076669 0.068099 0.007404
v -0.077377 0.066007 0.007048
v -0.075560 0.067796 0.009579
v -0.074279 0.068160 0.010041
v -0.074102 0.068555 0.009219
v -0.073468 0.068639 0.009482
v -0.064033 0.069351 0.013429
v -0.086039 0.048543 0.002114
v -0.085902 0.048611 0.001939
v -0.085852 0.048758 0.001751
v -0.086073 0.048474 0.002035
v -0.085952 0.048522 0.001870
v -0.085906 0.048656 0.001699
v -0.085951 0.048832 0.001575
v -0.086240 0.052323 0.004163
v -0.086130 0.052185 0.004199
v -0.086095 0.050835 0.003615
v -0.085652 0.052752 0.004525
v -0.086603 0.048763 0.001764
v -0.086519 0.048572 0.001831
v -0.086391 0.048542 0.001679
v -0.086193 0.048416 0.001944
v -0.086096 0.048431 0.001777
v -0.086184 0.048423 0.001750
v -0.086370 0.048447 0.001896
v -0.086270 0.048439 0.001732
v -0.086084 0.048734 0.001537
v -0.086274 0.048728 0.001535
v -0.086057 0.048546 0.001630
v -0.086148 0.048530 0.001613
v -0.086238 0.048533 0.001612
v -0.082819 0.059051 0.005186
v -0.082689 0.058934 0.005152
v -0.079285 0.063618 0.006201
v -0.086735 0.049265 0.001891
v -0.086669 0.048978 0.001772
v -0.086514 0.048998 0.001622
v -0.086297 0.048986 0.001527
v -0.086185 0.048970 0.001512
v -0.086704 0.048874 0.001905
v -0.086781 0.049132 0.002062
v -0.086617 0.048696 0.002010
v -0.086652 0.048802 0.002102
v -0.086675 0.048942 0.002202
v -0.086540 0.048614 0.002053
v -0.086566 0.048714 0.002150
v -0.086445 0.048550 0.002086
v -0.086471 0.048769 0.002293
v -0.086242 0.048483 0.002109
v -0.086228 0.048662 0.002307
v -0.086216 0.048816 0.002428
v -0.085247 0.052878 0.004179
v -0.085199 0.052975 0.004048
v -0.085420 0.052240 0.003738
v -0.085399 0.052346 0.003610
v -0.085447 0.052559 0.003397
v -0.077079 0.043494 -0.001485
v -0.076230 0.044557 -0.000037
v -0.079473 0.040235 0.005039
v -0.080321 0.039172 0.003591
v -0.079424 0.040459 -0.001604
v -0.094746 0.055984 0.001436
v -0.094954 0.055716 0.001334
v -0.094595 0.056173 0.001694
v -0.094541 0.056234 0.002039
v -0.094600 0.056150 0.002379
v -0.094755 0.055944 0.002621
v -0.094964 0.055670 0.002702
v -0.095324 0.055213 0.002342
v -0.095319 0.055236 0.001658
v -0.095164 0.055442 0.001415
v -0.077942 0.042389 -0.002009
v -0.084677 0.046129 -0.000053
v -0.075946 0.044890 0.001395
v -0.076119 0.044618 0.003355
v -0.076870 0.043609 0.004892
v -0.077997 0.042132 0.005595
v -0.084706 0.045994 0.003952
v -0.080598 0.038873 0.001158
v -0.080120 0.039536 -0.000652
v -0.085608 0.047541 0.000426
v -0.085203 0.048049 0.001118
v -0.094885 0.055865 0.001440
v -0.094721 0.056074 0.001605
v -0.094627 0.056188 0.001880
v -0.094629 0.056178 0.002192
v -0.094727 0.056045 0.002457
v -0.094893 0.055826 0.002605
v -0.095242 0.055399 0.001578
v -0.094220 0.056095 0.002049
v -0.094433 0.056226 0.002043
v -0.095301 0.055112 0.001617
v -0.094729 0.055456 0.001180
v -0.094894 0.055648 0.001256
v -0.095138 0.055298 0.002668
v -0.094498 0.056132 0.002421
v -0.095128 0.055342 0.001346
v -0.094661 0.055946 0.001370
v -0.094472 0.055786 0.001306
v -0.095306 0.055086 0.002380
v -0.094671 0.055902 0.002692
v -0.094483 0.055737 0.002765
v -0.094492 0.056158 0.001658
v -0.094286 0.056020 0.001624
v -0.095366 0.055018 0.001996
v -0.094905 0.055596 0.002782
v -0.094741 0.055400 0.002865
v -0.094228 0.056085 0.002157
v -0.085283 0.047951 0.000914
v -0.085508 0.047596 0.003473
v -0.085299 0.047875 0.003145
v -0.085150 0.048078 0.002738
v -0.085071 0.048192 0.002280
v -0.085739 0.047375 0.000313
v -0.085067 0.048208 0.001802
v -0.085140 0.048126 0.001336
v -0.094534 0.055711 0.001257
v -0.094664 0.055543 0.001193
v -0.094429 0.055811 0.002705
v -0.094325 0.055974 0.001533
v -0.094676 0.055487 0.002858
v -0.094260 0.056054 0.001724
vn -0.0679 0.9650 0.2532
vn -0.2906 0.5166 0.8054
vn 0.9112 -0.4040 0.0812
vn -0.2415 0.5857 0.7737
vn -0.5326 0.8141 0.2313
vn -0.3485 0.7303 0.5875
vn -0.4036 0.8991 0.1693
vn -0.3808 0.3673 0.8486
vn 0.3019 0.1632 -0.9392
vn -0.1981 0.4067 -0.8918
vn -0.6738 0.5321 -0.5126
vn -0.7059 0.7061 -0.0565
vn -0.2209 0.6649 0.7135
vn -0.2288 0.9076 -0.3519
vn -0.5609 0.8174 0.1317
vn -0.6387 0.5155 0.5713
vn -0.6511 0.5303 -0.5429
vn 0.1420 0.2796 -0.9496
vn 0.0736 0.8622 -0.5012
vn 0.9252 -0.1217 -0.3594
vn -0.4458 -0.0374 0.8944
vn -0.5074 0.6934 -0.5116
vn -0.5643 0.6260 -0.5383
vn -0.4257 0.0698 0.9022
vn -0.1819 -0.1080 0.9774
vn 0.2988 -0.3934 0.8695
vn 0.9899 0.1283 0.0597
vn 0.0717 -0.0421 0.9965
vn 0.5426 0.1026 0.8337
vn -0.3599 0.9150 0.1823
vn -0.7302 0.6746 -0.1081
vn -0.1466 0.3856 -0.9109
vn -0.6851 0.7284 -0.0057
vn -0.6512 0.7569 -0.0556
vn -0.4990 0.6940 0.5191
vn -0.8542 0.4608 0.2410
vn -0.4242 0.8657 0.2657
vn -0.2553 0.9144 0.3140
vn -0.1749 0.8326 0.5256
vn -0.1641 0.8225 0.5446
vn -0.8945 0.4389 -0.0848
vn -0.9660 0.1288 0.2240
vn -0.4372 0.7791 -0.4493
vn -0.7668 0.6412 -0.0289
vn -0.8342 0.3612 0.4167
vn -0.6232 0.0383 0.7811
vn 0.8085 -0.0154 -0.5883
vn 0.8168 0.3553 0.4545
vn 0.7543 0.6097 0.2435
vn 0.5205 0.5684 0.6371
vn 0.0561 0.9834 -0.1725
vn -0.3098 0.9215 0.2342
vn -0.0177 0.9419 0.3353
vn 0.4325 0.9007 -0.0406
vn 0.2410 0.8912 0.3842
vn -0.2931 0.1807 0.9389
vn 0.1404 0.2340 0.9620
vn -0.3616 0.5890 0.7227
vn -0.1171 0.6132 0.7812
vn 0.1673 0.5590 0.8121
vn 0.0031 -0.2356 0.9718
vn -0.3679 0.0261 0.9295
vn 0.7065 -0.3044 0.6390
vn 0.8260 0.0014 0.5636
vn 0.5071 -0.2187 0.8337
vn 0.9437 0.2957 0.1484
vn 0.9870 0.1293 -0.0956
vn 0.8160 0.5752 -0.0575
vn 0.9681 0.2400 -0.0715
vn 0.9983 0.0553 -0.0159
vn 0.9650 0.2610 -0.0243
vn 0.6829 0.6469 -0.3394
vn 0.8361 0.1330 -0.5322
vn 0.0975 0.8110 -0.5769
vn 0.0669 0.6506 -0.7564
vn -0.0810 0.4510 -0.8888
vn -0.8800 0.4095 -0.2405
vn -0.9099 0.3328 -0.2474
vn -0.9628 0.2663 0.0465
vn -0.7904 0.0647 0.6092
vn 0.1712 0.5439 -0.8215
vn 0.3072 0.8101 -0.4994
vn -0.3748 -0.2342 0.8970
vn -0.6691 -0.5971 0.4425
vn -0.3047 -0.1092 -0.9462
vn -0.4824 0.7485 -0.4549
vn -0.7177 0.5312 -0.4502
vn -0.3442 0.9037 -0.2545
vn -0.2970 0.9544 0.0289
vn -0.3570 0.8833 0.3040
vn -0.5010 0.7171 0.4845
vn -0.7268 0.5204 0.4482
vn -0.9217 0.3454 0.1766
vn -0.9227 0.3091 -0.2305
vn -0.8551 0.4131 -0.3134
vn 0.0196 0.3201 -0.9472
vn 0.0169 0.3129 -0.9496
vn 0.3403 0.9384 -0.0601
vn 0.3384 0.8504 0.4030
vn 0.2107 0.5648 0.7978
vn -0.0101 0.2242 0.9745
vn -0.0183 0.2124 0.9770
vn -0.7359 -0.6681 -0.1097
vn -0.6239 -0.5227 -0.5810
vn 0.1660 0.5380 -0.8264
vn 0.4392 0.7476 -0.4982
vn -0.6583 0.6484 -0.3824
vn -0.5273 0.8002 -0.2858
vn -0.4484 0.8895 -0.0880
vn -0.4548 0.8789 0.1439
vn -0.5417 0.7750 0.3255
vn -0.6713 0.6220 0.4030
vn 0.6378 0.7521 0.1660
vn 0.3554 0.9284 0.1085
vn -0.8362 -0.2436 -0.4914
vn -0.2956 0.3666 -0.8822
vn -0.6353 0.0071 0.7722
vn 0.2028 0.8398 0.5036
vn -0.5549 0.0312 -0.8313
vn -0.0406 0.6472 -0.7612
vn -0.8836 -0.2616 0.3884
vn -0.0365 0.6462 0.7623
vn 0.2046 0.5551 0.8062
vn 0.2345 0.8799 -0.4133
vn 0.5260 0.7141 -0.4620
vn -0.9338 -0.3517 -0.0651
vn -0.3360 0.3367 0.8796
vn 0.4276 0.6757 -0.6005
vn 0.4518 0.7129 0.5363
vn 0.4604 0.7797 0.4243
vn 0.5026 0.8481 0.1677
vn 0.4946 0.8653 -0.0812
vn 0.4788 0.8285 -0.2903
vn 0.6178 0.7296 -0.2931
vt 0.937078 0.296480
vt 0.940214 0.297362
vt 0.939839 0.303844
vt 0.936747 0.303366
vt 0.936856 0.301669
vt 0.753551 0.274662
vt 0.752815 0.280169
vt 0.589440 0.260855
vt 0.598942 0.226536
vt 0.756432 0.258457
vt 0.757599 0.253192
vt 0.937219 0.294771
vt 0.949114 0.272247
vt 0.943501 0.342982
vt 0.945317 0.341598
vt 0.946563 0.279234
vt 0.944843 0.278027
vt 0.028498 0.640705
vt 0.099934 0.666626
vt 0.054940 0.653234
vt 0.053779 0.653889
vt 0.026319 0.643658
vt 0.024206 0.643240
vt 0.024629 0.642577
vt 0.025670 0.642750
vt 0.026195 0.642049
vt 0.027460 0.642248
vt 0.940904 0.329321
vt 0.942203 0.325876
vt 0.940499 0.322964
vt 0.942077 0.319696
vt 0.940649 0.316634
vt 0.942316 0.313494
vt 0.941000 0.310329
vt 0.942671 0.307292
vt 0.941375 0.304040
vt 0.943081 0.301093
vt 0.941817 0.297732
vt 0.943675 0.294913
vt 0.942568 0.291424
vt 0.944007 0.285191
vt 0.946652 0.282958
vt 0.049849 0.664692
vt 0.021445 0.649986
vt 0.021432 0.648333
vt 0.022202 0.648742
vt 0.049977 0.662115
vt 0.113706 0.669475
vt 0.114731 0.670594
vt 0.150054 0.687745
vt 0.159662 0.689634
vt 0.157978 0.692804
vt 0.178662 0.712695
vt 0.179639 0.716749
vt 0.056459 0.662169
vt 0.022667 0.647067
vt 0.021905 0.646723
vt 0.022801 0.645445
vt 0.023511 0.645698
vt 0.023950 0.645143
vt 0.026070 0.645801
vt 0.057384 0.658712
vt 0.158777 0.702880
vt 0.151934 0.698809
vt 0.155079 0.697064
vt 0.146451 0.692618
vt 0.940473 0.336502
vt 0.624495 0.431727
vt 0.605037 0.391771
vt 0.728247 0.365803
vt 0.935597 0.329319
vt 0.935685 0.331100
vt 0.939100 0.329864
vt 0.175148 0.700292
vt 0.180842 0.712512
vt 0.190220 0.676581
vt 0.198049 0.684432
vt 0.191372 0.704661
vt 0.977742 0.650277
vt 0.979249 0.652782
vt 0.978134 0.655580
vt 0.671324 0.880017
vt 0.415630 0.940589
vt 0.282970 0.876560
vt 0.171843 0.732171
vt 0.167198 0.724548
vt 0.179161 0.719968
vt 0.181452 0.720475
vt 0.177026 0.727152
vt 0.205398 0.712532
vt 0.269976 0.703400
vt 0.026555 0.645234
vt 0.042588 0.651151
vt 0.057915 0.657890
vt 0.123113 0.686946
vt 0.123711 0.686061
vt 0.133532 0.690635
vt 0.140675 0.684375
vt 0.025325 0.644871
vt 0.023554 0.644430
vt 0.020783 0.652486
vt 0.021095 0.651830
vt 0.102302 0.691180
vt 0.102310 0.692556
vt 0.125023 0.709874
vt 0.107494 0.704321
vt 0.020076 0.653969
vt 0.019217 0.653269
vt 0.019967 0.651804
vt 0.056592 0.679039
vt 0.020389 0.657833
vt 0.021038 0.657224
vt 0.099862 0.702867
vt 0.067906 0.653677
vt 0.028819 0.639874
vt 0.017106 0.638202
vt 0.015683 0.638100
vt 0.025112 0.641883
vt 0.942258 0.284338
vt 0.630864 0.163105
vt 0.645885 0.141029
vt 0.141968 0.706217
vt 0.049860 0.665782
vt 0.163177 0.711764
vt 0.148052 0.718967
vt 0.936691 0.305075
vt 0.939470 0.310281
vt 0.936364 0.310235
vt 0.936278 0.311931
vt 0.750937 0.308063
vt 0.751327 0.296874
vt 0.752200 0.285712
vt 0.022811 0.644377
vt 0.022287 0.645160
vt 0.015872 0.642135
vt 0.017183 0.641187
vt 0.020774 0.648006
vt 0.018491 0.640288
vt 0.017940 0.640017
vt 0.018234 0.638571
vt 0.019281 0.655405
vt 0.200916 0.705148
vt 0.200787 0.712999
vt 0.014241 0.641553
vt 0.015171 0.641141
vt 0.014006 0.638382
vt 0.026053 0.640476
vt 0.017057 0.639555
vt 0.016042 0.639498
vt 0.017510 0.641720
vt 0.016843 0.640776
vt 0.017489 0.639768
vt 0.667703 0.112887
vt 0.751029 0.319207
vt 0.586933 0.323194
vt 0.585997 0.287470
vt 0.018345 0.637785
vt 0.018779 0.638635
vt 0.643152 0.462040
vt 0.050149 0.660715
vt 0.056289 0.663591
vt 0.939054 0.316745
vt 0.751580 0.330216
vt 0.016499 0.640414
vt 0.013504 0.640058
vt 0.593583 0.358138
vt 0.752556 0.341027
vt 0.935598 0.322289
vt 0.935508 0.324027
vt 0.938798 0.323262
vt 0.940877 0.290844
vt 0.021295 0.646401
vt 0.569611 0.497417
vt 0.268694 0.574280
vt 0.937669 0.289532
vt 0.937505 0.291274
vt 0.732562 0.236323
vt 0.609208 0.201917
s 1
usemtl 
f 211/73/170 210/74/185 215/75/189 216/76/190 232/77/193 221/78/193 194/79/171 170/80/147 169/81/146 193/82/170 226/83/170 229/84/170
f 217/85/191 212/86/186 181/87/158 182/88/159 204/89/180
f 153/90/132 91/91/83 127/92/112 128/93/112 160/94/138 159/95/137 157/96/136 158/97/136 155/98/134 156/99/135
f 181/87/158 180/100/157 200/101/177 179/102/156 199/103/176 178/104/155 198/105/175 177/106/154 197/107/174 176/108/153 196/109/173 174/110/151 195/111/172 175/112/152 183/113/160 201/114/160 182/88/159
f 168/115/145 126/116/111 125/117/110 122/118/107 167/119/144
f 68/120/68 79/121/74 91/91/83
f 81/122/76 82/123/77 104/124/96 111/125/98 112/126/99 164/127/142 121/128/106 124/129/109 123/130/108 120/131/87 95/132/87 96/133/88 89/134/82 90/135/82 107/136/82 106/137/82 105/138/82
f 207/139/182 171/140/148 189/141/166 190/142/167 233/143/167 219/144/167 218/145/192
f 71/146/70 72/147/70 111/125/98 104/124/96 82/123/77 76/148/72 103/149/95 115/150/102
f 85/151/78 84/152/69 83/153/69 69/154/69 70/155/69 77/156/69 67/157/67 78/158/73 113/159/100 73/160/71 74/161/71 118/162/104 119/163/105
f 107/136/82 90/135/82 89/134/82 96/133/88 163/164/141 129/165/97 130/166/97 110/167/97 108/168/97 109/169/97 80/170/75 81/122/76 105/138/82 106/137/82
f 160/94/138 162/171/140 161/172/139 159/95/137
f 150/173/126 151/174/126 145/175/126 144/176/126 98/177/90 99/178/91 149/179/130 102/180/94 101/181/93
f 93/182/85 100/183/92 147/184/128 68/185/68
f 93/186/85 68/120/68 91/91/83 153/90/132 100/187/92
f 137/188/119 132/189/114 154/190/133 155/98/134 158/97/136 157/96/136 159/95/137
f 209/191/184 173/192/150 192/193/169 204/89/180
f 146/194/127 94/195/86 168/115/145 114/196/101 113/159/100 78/158/73 67/157/67 97/197/89
f 234/198/199 216/76/190 215/75/189 203/199/179 202/200/178 220/201/178 225/202/196 227/203/197 228/204/198
f 94/195/86 126/116/111 168/115/145
f 92/205/84 161/172/139 162/171/140 163/164/141 96/133/88 95/132/87 120/131/87 123/130/108 86/206/79
f 139/207/121 141/208/123 88/209/81 125/117/110 126/116/111
f 87/210/80 135/211/117 134/212/116 86/206/79 123/130/108 124/129/109
f 99/178/91 68/185/68 147/184/128 148/213/129 149/179/130
f 74/161/71 73/160/71 113/159/100 112/126/99 111/125/98 72/147/70 71/146/70 115/150/102 116/214/103 117/215/103 118/162/104
f 207/139/182 218/145/192 180/100/157 181/87/158 212/86/186
f 144/176/126 145/175/126 151/174/126 150/173/126 101/216/93 140/217/122 139/207/121 126/116/111 94/195/86 146/194/127 97/197/89 98/177/90
f 131/218/113 148/213/129 147/184/128 100/187/92 153/90/132 152/219/131
f 137/188/119 138/220/120 133/221/115 132/189/114
f 87/210/80 88/222/81 141/208/123 142/223/124 136/224/118 135/211/117
f 191/225/168 217/85/191 204/89/180 192/193/169
f 225/202/196 224/226/195 187/227/164 186/228/163 227/203/197
f 114/196/101 168/115/145 167/119/144
f 137/188/119 159/95/137 161/172/139 92/229/84 86/230/79 134/212/116
f 217/85/191 191/225/168 172/231/149 212/86/186
f 131/218/113 152/219/131 154/190/133 132/189/114
f 153/90/132 156/99/135 155/98/134 154/190/133 152/219/131
f 114/196/101 167/119/144 166/232/143 165/233/143 164/127/142 112/126/99 113/159/100
f 227/203/197 186/228/163 170/80/147 194/79/171 228/204/198
f 208/234/183 203/199/179 177/106/154 198/105/175 178/104/155
f 220/201/178 202/200/178 203/199/179 208/234/183 223/235/194 224/226/195 225/202/196
f 133/221/115 143/236/125 140/217/122 101/216/93 102/237/94
f 188/238/165 222/239/188 231/240/188 214/241/188 213/242/187 218/145/192 219/144/167 233/143/167 190/142/167 189/141/166
f 79/121/74 80/170/75 109/169/97 108/168/97 110/167/97 130/166/97 129/165/97 163/164/141 162/171/140 160/94/138 128/93/112 127/92/112 91/91/83
f 136/224/118 138/220/120 137/188/119 134/212/116 135/211/117
f 216/76/190 234/198/199 228/204/198 194/79/171 221/78/193 232/77/193
f 140/217/122 143/236/125 142/223/124 141/208/123 139/207/121
f 102/180/94 149/179/130 148/213/129 131/218/113 132/189/114 133/221/115
f 209/191/184 204/89/180 182/88/159 201/114/160 183/113/160 175/112/152 206/243/181
f 212/86/186 172/231/149 171/140/148 207/139/182
f 206/243/181 175/112/152 195/111/172 174/110/151 210/74/185
f 121/128/106 122/118/107 125/117/110 88/209/81 87/244/80 124/129/109
f 213/242/187 208/234/183 178/104/155 199/103/176 179/102/156
f 167/119/144 122/118/107 121/128/106 164/127/142 165/233/143 166/232/143
f 133/221/115 138/220/120 136/224/118 142/223/124 143/236/125
f 210/74/185 174/110/151 196/109/173 176/108/153 215/75/189
f 224/226/195 223/235/194 208/234/183 213/242/187 214/241/188 231/240/188 222/239/188 188/238/165 187/227/164
f 218/145/192 213/242/187 179/102/156 200/101/177 180/100/157
f 215/75/189 176/108/153 197/107/174 177/106/154 203/199/179
f 66/245/66 85/151/78 119/163/105 118/162/104 117/215/103 116/214/103 115/150/102 103/149/95 76/148/72 75/246/66
f 173/192/150 209/191/184 206/243/181 205/247/162 230/248/162 185/249/162 184/250/161
f 230/248/162 205/247/162 206/243/181 210/74/185 211/73/170 229/84/170 226/83/170 193/82/170 169/81/146 184/250/161 185/249/162
